<?xml version="1.0" encoding="utf-8" standalone="no"?>
<!DOCTYPE svg PUBLIC "-//W3C//DTD SVG 1.1//EN"
  "http://www.w3.org/Graphics/SVG/1.1/DTD/svg11.dtd">
<svg xmlns:xlink="http://www.w3.org/1999/xlink" width="432pt" height="288pt" viewBox="0 0 432 288" xmlns="http://www.w3.org/2000/svg" version="1.1">
 <metadata>
  <rdf:RDF xmlns:dc="http://purl.org/dc/elements/1.1/" xmlns:cc="http://creativecommons.org/ns#" xmlns:rdf="http://www.w3.org/1999/02/22-rdf-syntax-ns#">
   <cc:Work>
    <dc:type rdf:resource="http://purl.org/dc/dcmitype/StillImage"/>
    <dc:date>2022-10-07T19:29:18.819184</dc:date>
    <dc:format>image/svg+xml</dc:format>
    <dc:creator>
     <cc:Agent>
      <dc:title>Matplotlib v3.6.0, https://matplotlib.org/</dc:title>
     </cc:Agent>
    </dc:creator>
   </cc:Work>
  </rdf:RDF>
 </metadata>
 <defs>
  <style type="text/css">*{stroke-linejoin: round; stroke-linecap: butt}</style>
 </defs>
 <g id="figure_1">
  <g id="patch_1">
   <path d="M 0 288 
L 432 288 
L 432 0 
L 0 0 
z
" style="fill: #ffffff"/>
  </g>
  <g id="axes_1">
   <g id="patch_2">
    <path d="M 54 99.783529 
L 388.8 99.783529 
L 388.8 34.56 
L 54 34.56 
z
" style="fill: #ffffff"/>
   </g>
   <g id="matplotlib.axis_1"/>
   <g id="matplotlib.axis_2">
    <g id="ytick_1">
     <g id="line2d_1">
      <defs>
       <path id="mf6669ff38f" d="M 0 0 
L -3.5 0 
" style="stroke: #000000; stroke-width: 0.8"/>
      </defs>
      <g>
       <use xlink:href="#mf6669ff38f" x="54" y="89.957517" style="stroke: #000000; stroke-width: 0.8"/>
      </g>
     </g>
     <g id="text_1">
      <!-- −250 -->
      <g transform="translate(19.532812 93.756735) scale(0.1 -0.1)">
       <defs>
        <path id="DejaVuSans-2212" d="M 678 2272 
L 4684 2272 
L 4684 1741 
L 678 1741 
L 678 2272 
z
" transform="scale(0.015625)"/>
        <path id="DejaVuSans-32" d="M 1228 531 
L 3431 531 
L 3431 0 
L 469 0 
L 469 531 
Q 828 903 1448 1529 
Q 2069 2156 2228 2338 
Q 2531 2678 2651 2914 
Q 2772 3150 2772 3378 
Q 2772 3750 2511 3984 
Q 2250 4219 1831 4219 
Q 1534 4219 1204 4116 
Q 875 4013 500 3803 
L 500 4441 
Q 881 4594 1212 4672 
Q 1544 4750 1819 4750 
Q 2544 4750 2975 4387 
Q 3406 4025 3406 3419 
Q 3406 3131 3298 2873 
Q 3191 2616 2906 2266 
Q 2828 2175 2409 1742 
Q 1991 1309 1228 531 
z
" transform="scale(0.015625)"/>
        <path id="DejaVuSans-35" d="M 691 4666 
L 3169 4666 
L 3169 4134 
L 1269 4134 
L 1269 2991 
Q 1406 3038 1543 3061 
Q 1681 3084 1819 3084 
Q 2600 3084 3056 2656 
Q 3513 2228 3513 1497 
Q 3513 744 3044 326 
Q 2575 -91 1722 -91 
Q 1428 -91 1123 -41 
Q 819 9 494 109 
L 494 744 
Q 775 591 1075 516 
Q 1375 441 1709 441 
Q 2250 441 2565 725 
Q 2881 1009 2881 1497 
Q 2881 1984 2565 2268 
Q 2250 2553 1709 2553 
Q 1456 2553 1204 2497 
Q 953 2441 691 2322 
L 691 4666 
z
" transform="scale(0.015625)"/>
        <path id="DejaVuSans-30" d="M 2034 4250 
Q 1547 4250 1301 3770 
Q 1056 3291 1056 2328 
Q 1056 1369 1301 889 
Q 1547 409 2034 409 
Q 2525 409 2770 889 
Q 3016 1369 3016 2328 
Q 3016 3291 2770 3770 
Q 2525 4250 2034 4250 
z
M 2034 4750 
Q 2819 4750 3233 4129 
Q 3647 3509 3647 2328 
Q 3647 1150 3233 529 
Q 2819 -91 2034 -91 
Q 1250 -91 836 529 
Q 422 1150 422 2328 
Q 422 3509 836 4129 
Q 1250 4750 2034 4750 
z
" transform="scale(0.015625)"/>
       </defs>
       <use xlink:href="#DejaVuSans-2212"/>
       <use xlink:href="#DejaVuSans-32" x="83.789062"/>
       <use xlink:href="#DejaVuSans-35" x="147.412109"/>
       <use xlink:href="#DejaVuSans-30" x="211.035156"/>
      </g>
     </g>
    </g>
    <g id="ytick_2">
     <g id="line2d_2">
      <g>
       <use xlink:href="#mf6669ff38f" x="54" y="67.168027" style="stroke: #000000; stroke-width: 0.8"/>
      </g>
     </g>
     <g id="text_2">
      <!-- 0 -->
      <g transform="translate(40.6375 70.967245) scale(0.1 -0.1)">
       <use xlink:href="#DejaVuSans-30"/>
      </g>
     </g>
    </g>
    <g id="ytick_3">
     <g id="line2d_3">
      <g>
       <use xlink:href="#mf6669ff38f" x="54" y="44.378537" style="stroke: #000000; stroke-width: 0.8"/>
      </g>
     </g>
     <g id="text_3">
      <!-- 250 -->
      <g transform="translate(27.9125 48.177755) scale(0.1 -0.1)">
       <use xlink:href="#DejaVuSans-32"/>
       <use xlink:href="#DejaVuSans-35" x="63.623047"/>
       <use xlink:href="#DejaVuSans-30" x="127.246094"/>
      </g>
     </g>
    </g>
    <g id="text_4">
     <!-- voltage in V -->
     <g transform="translate(13.453125 97.010827) rotate(-90) scale(0.1 -0.1)">
      <defs>
       <path id="DejaVuSans-76" d="M 191 3500 
L 800 3500 
L 1894 563 
L 2988 3500 
L 3597 3500 
L 2284 0 
L 1503 0 
L 191 3500 
z
" transform="scale(0.015625)"/>
       <path id="DejaVuSans-6f" d="M 1959 3097 
Q 1497 3097 1228 2736 
Q 959 2375 959 1747 
Q 959 1119 1226 758 
Q 1494 397 1959 397 
Q 2419 397 2687 759 
Q 2956 1122 2956 1747 
Q 2956 2369 2687 2733 
Q 2419 3097 1959 3097 
z
M 1959 3584 
Q 2709 3584 3137 3096 
Q 3566 2609 3566 1747 
Q 3566 888 3137 398 
Q 2709 -91 1959 -91 
Q 1206 -91 779 398 
Q 353 888 353 1747 
Q 353 2609 779 3096 
Q 1206 3584 1959 3584 
z
" transform="scale(0.015625)"/>
       <path id="DejaVuSans-6c" d="M 603 4863 
L 1178 4863 
L 1178 0 
L 603 0 
L 603 4863 
z
" transform="scale(0.015625)"/>
       <path id="DejaVuSans-74" d="M 1172 4494 
L 1172 3500 
L 2356 3500 
L 2356 3053 
L 1172 3053 
L 1172 1153 
Q 1172 725 1289 603 
Q 1406 481 1766 481 
L 2356 481 
L 2356 0 
L 1766 0 
Q 1100 0 847 248 
Q 594 497 594 1153 
L 594 3053 
L 172 3053 
L 172 3500 
L 594 3500 
L 594 4494 
L 1172 4494 
z
" transform="scale(0.015625)"/>
       <path id="DejaVuSans-61" d="M 2194 1759 
Q 1497 1759 1228 1600 
Q 959 1441 959 1056 
Q 959 750 1161 570 
Q 1363 391 1709 391 
Q 2188 391 2477 730 
Q 2766 1069 2766 1631 
L 2766 1759 
L 2194 1759 
z
M 3341 1997 
L 3341 0 
L 2766 0 
L 2766 531 
Q 2569 213 2275 61 
Q 1981 -91 1556 -91 
Q 1019 -91 701 211 
Q 384 513 384 1019 
Q 384 1609 779 1909 
Q 1175 2209 1959 2209 
L 2766 2209 
L 2766 2266 
Q 2766 2663 2505 2880 
Q 2244 3097 1772 3097 
Q 1472 3097 1187 3025 
Q 903 2953 641 2809 
L 641 3341 
Q 956 3463 1253 3523 
Q 1550 3584 1831 3584 
Q 2591 3584 2966 3190 
Q 3341 2797 3341 1997 
z
" transform="scale(0.015625)"/>
       <path id="DejaVuSans-67" d="M 2906 1791 
Q 2906 2416 2648 2759 
Q 2391 3103 1925 3103 
Q 1463 3103 1205 2759 
Q 947 2416 947 1791 
Q 947 1169 1205 825 
Q 1463 481 1925 481 
Q 2391 481 2648 825 
Q 2906 1169 2906 1791 
z
M 3481 434 
Q 3481 -459 3084 -895 
Q 2688 -1331 1869 -1331 
Q 1566 -1331 1297 -1286 
Q 1028 -1241 775 -1147 
L 775 -588 
Q 1028 -725 1275 -790 
Q 1522 -856 1778 -856 
Q 2344 -856 2625 -561 
Q 2906 -266 2906 331 
L 2906 616 
Q 2728 306 2450 153 
Q 2172 0 1784 0 
Q 1141 0 747 490 
Q 353 981 353 1791 
Q 353 2603 747 3093 
Q 1141 3584 1784 3584 
Q 2172 3584 2450 3431 
Q 2728 3278 2906 2969 
L 2906 3500 
L 3481 3500 
L 3481 434 
z
" transform="scale(0.015625)"/>
       <path id="DejaVuSans-65" d="M 3597 1894 
L 3597 1613 
L 953 1613 
Q 991 1019 1311 708 
Q 1631 397 2203 397 
Q 2534 397 2845 478 
Q 3156 559 3463 722 
L 3463 178 
Q 3153 47 2828 -22 
Q 2503 -91 2169 -91 
Q 1331 -91 842 396 
Q 353 884 353 1716 
Q 353 2575 817 3079 
Q 1281 3584 2069 3584 
Q 2775 3584 3186 3129 
Q 3597 2675 3597 1894 
z
M 3022 2063 
Q 3016 2534 2758 2815 
Q 2500 3097 2075 3097 
Q 1594 3097 1305 2825 
Q 1016 2553 972 2059 
L 3022 2063 
z
" transform="scale(0.015625)"/>
       <path id="DejaVuSans-20" transform="scale(0.015625)"/>
       <path id="DejaVuSans-69" d="M 603 3500 
L 1178 3500 
L 1178 0 
L 603 0 
L 603 3500 
z
M 603 4863 
L 1178 4863 
L 1178 4134 
L 603 4134 
L 603 4863 
z
" transform="scale(0.015625)"/>
       <path id="DejaVuSans-6e" d="M 3513 2113 
L 3513 0 
L 2938 0 
L 2938 2094 
Q 2938 2591 2744 2837 
Q 2550 3084 2163 3084 
Q 1697 3084 1428 2787 
Q 1159 2491 1159 1978 
L 1159 0 
L 581 0 
L 581 3500 
L 1159 3500 
L 1159 2956 
Q 1366 3272 1645 3428 
Q 1925 3584 2291 3584 
Q 2894 3584 3203 3211 
Q 3513 2838 3513 2113 
z
" transform="scale(0.015625)"/>
       <path id="DejaVuSans-56" d="M 1831 0 
L 50 4666 
L 709 4666 
L 2188 738 
L 3669 4666 
L 4325 4666 
L 2547 0 
L 1831 0 
z
" transform="scale(0.015625)"/>
      </defs>
      <use xlink:href="#DejaVuSans-76"/>
      <use xlink:href="#DejaVuSans-6f" x="59.179688"/>
      <use xlink:href="#DejaVuSans-6c" x="120.361328"/>
      <use xlink:href="#DejaVuSans-74" x="148.144531"/>
      <use xlink:href="#DejaVuSans-61" x="187.353516"/>
      <use xlink:href="#DejaVuSans-67" x="248.632812"/>
      <use xlink:href="#DejaVuSans-65" x="312.109375"/>
      <use xlink:href="#DejaVuSans-20" x="373.632812"/>
      <use xlink:href="#DejaVuSans-69" x="405.419922"/>
      <use xlink:href="#DejaVuSans-6e" x="433.203125"/>
      <use xlink:href="#DejaVuSans-20" x="496.582031"/>
      <use xlink:href="#DejaVuSans-56" x="528.369141"/>
     </g>
    </g>
   </g>
   <g id="line2d_4">
    <path d="M 54 67.168027 
L 388.8 67.168027 
" clip-path="url(#p8b7f9f2335)" style="fill: none; stroke: #808080; stroke-width: 1.5; stroke-linecap: square"/>
   </g>
   <g id="line2d_5">
    <path d="M 54 88.134358 
L 56.131403 85.936473 
L 60.394209 81.001953 
L 64.657015 75.515919 
L 71.051224 66.735085 
L 77.445433 57.992925 
L 81.708239 52.574216 
L 85.971045 47.737316 
L 88.102448 45.598429 
L 90.233851 43.675058 
L 92.365254 41.986421 
L 94.496657 40.54939 
L 96.62806 39.378324 
L 98.759463 38.484923 
L 100.890866 37.878115 
L 103.022269 37.563961 
L 105.153672 37.545602 
L 107.285075 37.82322 
L 109.416478 38.394041 
L 111.547881 39.252363 
L 113.679284 40.389609 
L 115.810687 41.794416 
L 117.94209 43.452748 
L 120.073493 45.348035 
L 122.204896 47.46134 
L 124.336299 49.771548 
L 128.599105 54.888603 
L 132.861911 60.495201 
L 145.650329 77.973377 
L 149.913135 83.243632 
L 152.044538 85.650654 
L 154.175941 87.873004 
L 156.307344 89.888476 
L 158.438747 91.676933 
L 160.57015 93.220506 
L 162.701553 94.50377 
L 164.832956 95.513905 
L 166.964359 96.240817 
L 169.095762 96.677243 
L 171.227165 96.818824 
L 173.358568 96.664143 
L 175.489971 96.214746 
L 177.621374 95.475125 
L 179.752777 94.452668 
L 181.88418 93.157592 
L 184.015583 91.602837 
L 186.146986 89.803938 
L 188.278389 87.778868 
L 190.409792 85.547861 
L 194.672598 80.559038 
L 198.935404 75.036358 
L 207.461016 63.282619 
L 211.723822 57.520144 
L 215.986628 52.1423 
L 218.118031 49.665452 
L 220.249434 47.363484 
L 222.380837 45.259396 
L 224.51224 43.374213 
L 226.643643 41.726769 
L 228.775046 40.333526 
L 230.906449 39.208404 
L 233.037852 38.362646 
L 235.169255 37.804701 
L 237.300658 37.540145 
L 239.432061 37.571621 
L 241.563464 37.898815 
L 243.694867 38.518457 
L 245.82627 39.424356 
L 247.957673 40.60746 
L 250.089076 42.055949 
L 252.220479 43.75535 
L 254.351882 45.688682 
L 256.483285 47.836629 
L 258.614688 50.177728 
L 262.877494 55.344124 
L 267.1403 60.981902 
L 279.928718 78.436114 
L 284.191524 83.660275 
L 286.322927 86.03788 
L 288.45433 88.226943 
L 290.585733 90.205592 
L 292.717136 91.954058 
L 294.848539 93.45487 
L 296.979942 94.693032 
L 299.111345 95.656174 
L 301.242748 96.334672 
L 303.374151 96.721746 
L 305.505554 96.813529 
L 307.636957 96.609104 
L 309.76836 96.110513 
L 311.899763 95.322739 
L 314.031166 94.253652 
L 316.162569 92.913935 
L 318.293972 91.316973 
L 320.425375 89.478722 
L 322.556778 87.417551 
L 324.688181 85.154053 
L 328.950987 80.112337 
L 333.213793 74.554573 
L 348.133614 54.318165 
L 352.39642 49.265503 
L 354.527823 46.99525 
L 356.659226 44.926558 
L 358.790629 43.080094 
L 360.922032 41.47431 
L 363.053435 40.125248 
L 365.184838 39.046389 
L 367.316241 38.248512 
L 369.447644 37.739589 
L 371.579047 37.524706 
L 373.71045 37.606009 
L 375.841853 37.982685 
L 377.973256 38.650972 
L 380.104659 39.604192 
L 382.236062 40.832821 
L 384.367465 42.324582 
L 386.498868 44.064571 
L 388.630271 46.035402 
L 388.630271 46.035402 
" clip-path="url(#p8b7f9f2335)" style="fill: none; stroke: #90ee90; stroke-width: 1.5; stroke-linecap: square"/>
   </g>
   <g id="line2d_6">
    <path d="M 54 87.485313 
L 56.131403 85.355467 
L 60.394209 80.573703 
L 64.657015 75.257497 
L 71.051224 66.748487 
L 77.445433 58.276954 
L 81.708239 53.02599 
L 85.971045 48.338824 
L 88.102448 46.266149 
L 90.233851 44.402319 
L 92.365254 42.765956 
L 94.496657 41.37341 
L 96.62806 40.238596 
L 98.759463 39.372852 
L 100.890866 38.784828 
L 103.022269 38.4804 
L 105.153672 38.462609 
L 107.285075 38.731633 
L 109.416478 39.284784 
L 111.547881 40.116535 
L 113.679284 41.218576 
L 115.810687 42.579895 
L 117.94209 44.18689 
L 120.073493 46.023506 
L 122.204896 48.07139 
L 124.336299 50.310082 
L 128.599105 55.268731 
L 132.861911 60.701768 
L 145.650329 77.638881 
L 149.913135 82.745987 
L 152.044538 85.078496 
L 154.175941 87.23205 
L 156.307344 89.18513 
L 158.438747 90.918223 
L 160.57015 92.414011 
L 162.701553 93.65755 
L 164.832956 94.636415 
L 166.964359 95.340825 
L 169.095762 95.763741 
L 171.227165 95.900938 
L 173.358568 95.751046 
L 175.489971 95.315561 
L 177.621374 94.598836 
L 179.752777 93.608031 
L 181.88418 92.353046 
L 184.015583 90.846421 
L 186.146986 89.103209 
L 188.278389 87.140828 
L 190.409792 84.978885 
L 194.672598 80.144499 
L 198.935404 74.792782 
L 207.461016 63.402897 
L 211.723822 57.818809 
L 215.986628 52.607444 
L 218.118031 50.207271 
L 220.249434 47.976564 
L 222.380837 45.937611 
L 224.51224 44.110786 
L 226.643643 42.514342 
L 228.775046 41.164228 
L 230.906449 40.073937 
L 233.037852 39.25436 
L 235.169255 38.713687 
L 237.300658 38.457321 
L 239.432061 38.487823 
L 241.563464 38.804888 
L 243.694867 39.405348 
L 245.82627 40.283203 
L 247.957673 41.429683 
L 250.089076 42.833332 
L 252.220479 44.480125 
L 254.351882 46.353608 
L 256.483285 48.435062 
L 258.614688 50.703689 
L 262.877494 55.710151 
L 267.1403 61.173403 
L 279.928718 78.087293 
L 284.191524 83.149732 
L 286.322927 85.453735 
L 288.45433 87.575032 
L 290.585733 89.492429 
L 292.717136 91.186769 
L 294.848539 92.641121 
L 296.979942 93.840954 
L 299.111345 94.77428 
L 301.242748 95.431774 
L 303.374151 95.806865 
L 305.505554 95.895807 
L 307.636957 95.69771 
L 309.76836 95.214555 
L 311.899763 94.451167 
L 314.031166 93.415175 
L 316.162569 92.116931 
L 318.293972 90.569405 
L 320.425375 88.788061 
L 322.556778 86.790696 
L 324.688181 84.597268 
L 328.950987 79.711627 
L 333.213793 74.325911 
L 348.133614 54.715952 
L 352.39642 49.819703 
L 354.527823 47.619729 
L 356.659226 45.615076 
L 358.790629 43.825773 
L 360.922032 42.269698 
L 363.053435 40.962398 
L 365.184838 39.916937 
L 367.316241 39.14376 
L 369.447644 38.650591 
L 371.579047 38.44236 
L 373.71045 38.521146 
L 375.841853 38.886162 
L 377.973256 39.533761 
L 380.104659 40.457473 
L 382.236062 41.648067 
L 384.367465 43.093649 
L 386.498868 44.779774 
L 388.630271 46.689594 
L 388.630271 46.689594 
" clip-path="url(#p8b7f9f2335)" style="fill: none; stroke: #006400; stroke-width: 1.5; stroke-linecap: square"/>
   </g>
   <g id="patch_3">
    <path d="M 54 99.783529 
L 54 34.56 
" style="fill: none; stroke: #000000; stroke-width: 0.8; stroke-linejoin: miter; stroke-linecap: square"/>
   </g>
   <g id="patch_4">
    <path d="M 388.8 99.783529 
L 388.8 34.56 
" style="fill: none; stroke: #000000; stroke-width: 0.8; stroke-linejoin: miter; stroke-linecap: square"/>
   </g>
   <g id="patch_5">
    <path d="M 54 99.783529 
L 388.8 99.783529 
" style="fill: none; stroke: #000000; stroke-width: 0.8; stroke-linejoin: miter; stroke-linecap: square"/>
   </g>
   <g id="patch_6">
    <path d="M 54 34.56 
L 388.8 34.56 
" style="fill: none; stroke: #000000; stroke-width: 0.8; stroke-linejoin: miter; stroke-linecap: square"/>
   </g>
   <g id="text_5">
    <g id="patch_7">
     <path d="M 129.382 56.040272 
L 206.282 56.040272 
L 206.282 36.362147 
L 129.382 36.362147 
z
" style="fill: #90ee90; opacity: 0.75; stroke: #000000; stroke-linejoin: miter"/>
    </g>
    <!-- $U_{RMS}$ = 230 V -->
    <g transform="translate(134.382 48.960585) scale(0.1 -0.1)">
     <defs>
      <path id="DejaVuSans-55" d="M 556 4666 
L 1191 4666 
L 1191 1831 
Q 1191 1081 1462 751 
Q 1734 422 2344 422 
Q 2950 422 3222 751 
Q 3494 1081 3494 1831 
L 3494 4666 
L 4128 4666 
L 4128 1753 
Q 4128 841 3676 375 
Q 3225 -91 2344 -91 
Q 1459 -91 1007 375 
Q 556 841 556 1753 
L 556 4666 
z
" transform="scale(0.015625)"/>
      <path id="DejaVuSans-52" d="M 2841 2188 
Q 3044 2119 3236 1894 
Q 3428 1669 3622 1275 
L 4263 0 
L 3584 0 
L 2988 1197 
Q 2756 1666 2539 1819 
Q 2322 1972 1947 1972 
L 1259 1972 
L 1259 0 
L 628 0 
L 628 4666 
L 2053 4666 
Q 2853 4666 3247 4331 
Q 3641 3997 3641 3322 
Q 3641 2881 3436 2590 
Q 3231 2300 2841 2188 
z
M 1259 4147 
L 1259 2491 
L 2053 2491 
Q 2509 2491 2742 2702 
Q 2975 2913 2975 3322 
Q 2975 3731 2742 3939 
Q 2509 4147 2053 4147 
L 1259 4147 
z
" transform="scale(0.015625)"/>
      <path id="DejaVuSans-4d" d="M 628 4666 
L 1569 4666 
L 2759 1491 
L 3956 4666 
L 4897 4666 
L 4897 0 
L 4281 0 
L 4281 4097 
L 3078 897 
L 2444 897 
L 1241 4097 
L 1241 0 
L 628 0 
L 628 4666 
z
" transform="scale(0.015625)"/>
      <path id="DejaVuSans-53" d="M 3425 4513 
L 3425 3897 
Q 3066 4069 2747 4153 
Q 2428 4238 2131 4238 
Q 1616 4238 1336 4038 
Q 1056 3838 1056 3469 
Q 1056 3159 1242 3001 
Q 1428 2844 1947 2747 
L 2328 2669 
Q 3034 2534 3370 2195 
Q 3706 1856 3706 1288 
Q 3706 609 3251 259 
Q 2797 -91 1919 -91 
Q 1588 -91 1214 -16 
Q 841 59 441 206 
L 441 856 
Q 825 641 1194 531 
Q 1563 422 1919 422 
Q 2459 422 2753 634 
Q 3047 847 3047 1241 
Q 3047 1584 2836 1778 
Q 2625 1972 2144 2069 
L 1759 2144 
Q 1053 2284 737 2584 
Q 422 2884 422 3419 
Q 422 4038 858 4394 
Q 1294 4750 2059 4750 
Q 2388 4750 2728 4690 
Q 3069 4631 3425 4513 
z
" transform="scale(0.015625)"/>
      <path id="DejaVuSans-3d" d="M 678 2906 
L 4684 2906 
L 4684 2381 
L 678 2381 
L 678 2906 
z
M 678 1631 
L 4684 1631 
L 4684 1100 
L 678 1100 
L 678 1631 
z
" transform="scale(0.015625)"/>
      <path id="DejaVuSans-33" d="M 2597 2516 
Q 3050 2419 3304 2112 
Q 3559 1806 3559 1356 
Q 3559 666 3084 287 
Q 2609 -91 1734 -91 
Q 1441 -91 1130 -33 
Q 819 25 488 141 
L 488 750 
Q 750 597 1062 519 
Q 1375 441 1716 441 
Q 2309 441 2620 675 
Q 2931 909 2931 1356 
Q 2931 1769 2642 2001 
Q 2353 2234 1838 2234 
L 1294 2234 
L 1294 2753 
L 1863 2753 
Q 2328 2753 2575 2939 
Q 2822 3125 2822 3475 
Q 2822 3834 2567 4026 
Q 2313 4219 1838 4219 
Q 1578 4219 1281 4162 
Q 984 4106 628 3988 
L 628 4550 
Q 988 4650 1302 4700 
Q 1616 4750 1894 4750 
Q 2613 4750 3031 4423 
Q 3450 4097 3450 3541 
Q 3450 3153 3228 2886 
Q 3006 2619 2597 2516 
z
" transform="scale(0.015625)"/>
     </defs>
     <use xlink:href="#DejaVuSans-55" transform="translate(0 0.78125)"/>
     <use xlink:href="#DejaVuSans-52" transform="translate(74.150391 -15.625) scale(0.7)"/>
     <use xlink:href="#DejaVuSans-4d" transform="translate(122.788086 -15.625) scale(0.7)"/>
     <use xlink:href="#DejaVuSans-53" transform="translate(183.183594 -15.625) scale(0.7)"/>
     <use xlink:href="#DejaVuSans-20" transform="translate(230.351562 0.78125)"/>
     <use xlink:href="#DejaVuSans-3d" transform="translate(262.138672 0.78125)"/>
     <use xlink:href="#DejaVuSans-20" transform="translate(345.927734 0.78125)"/>
     <use xlink:href="#DejaVuSans-32" transform="translate(377.714844 0.78125)"/>
     <use xlink:href="#DejaVuSans-33" transform="translate(441.337891 0.78125)"/>
     <use xlink:href="#DejaVuSans-30" transform="translate(504.960938 0.78125)"/>
     <use xlink:href="#DejaVuSans-20" transform="translate(568.583984 0.78125)"/>
     <use xlink:href="#DejaVuSans-56" transform="translate(600.371094 0.78125)"/>
    </g>
   </g>
   <g id="text_6">
    <g id="patch_8">
     <path d="M 236.518 56.040272 
L 313.418 56.040272 
L 313.418 36.362147 
L 236.518 36.362147 
z
" style="fill: #006400; opacity: 0.75; stroke: #000000; stroke-linejoin: miter"/>
    </g>
    <!-- $U_{RMS}$ = 223 V -->
    <g transform="translate(241.518 48.960585) scale(0.1 -0.1)">
     <use xlink:href="#DejaVuSans-55" transform="translate(0 0.78125)"/>
     <use xlink:href="#DejaVuSans-52" transform="translate(74.150391 -15.625) scale(0.7)"/>
     <use xlink:href="#DejaVuSans-4d" transform="translate(122.788086 -15.625) scale(0.7)"/>
     <use xlink:href="#DejaVuSans-53" transform="translate(183.183594 -15.625) scale(0.7)"/>
     <use xlink:href="#DejaVuSans-20" transform="translate(230.351562 0.78125)"/>
     <use xlink:href="#DejaVuSans-3d" transform="translate(262.138672 0.78125)"/>
     <use xlink:href="#DejaVuSans-20" transform="translate(345.927734 0.78125)"/>
     <use xlink:href="#DejaVuSans-32" transform="translate(377.714844 0.78125)"/>
     <use xlink:href="#DejaVuSans-32" transform="translate(441.337891 0.78125)"/>
     <use xlink:href="#DejaVuSans-33" transform="translate(504.960938 0.78125)"/>
     <use xlink:href="#DejaVuSans-20" transform="translate(568.583984 0.78125)"/>
     <use xlink:href="#DejaVuSans-56" transform="translate(600.371094 0.78125)"/>
    </g>
   </g>
  </g>
  <g id="axes_2">
   <g id="patch_9">
    <path d="M 54 178.051765 
L 388.8 178.051765 
L 388.8 112.828235 
L 54 112.828235 
z
" style="fill: #ffffff"/>
   </g>
   <g id="matplotlib.axis_3"/>
   <g id="matplotlib.axis_4">
    <g id="ytick_4">
     <g id="line2d_7">
      <g>
       <use xlink:href="#mf6669ff38f" x="54" y="165.822353" style="stroke: #000000; stroke-width: 0.8"/>
      </g>
     </g>
     <g id="text_7">
      <!-- −25 -->
      <g transform="translate(25.895312 169.621572) scale(0.1 -0.1)">
       <use xlink:href="#DejaVuSans-2212"/>
       <use xlink:href="#DejaVuSans-32" x="83.789062"/>
       <use xlink:href="#DejaVuSans-35" x="147.412109"/>
      </g>
     </g>
    </g>
    <g id="ytick_5">
     <g id="line2d_8">
      <g>
       <use xlink:href="#mf6669ff38f" x="54" y="145.44" style="stroke: #000000; stroke-width: 0.8"/>
      </g>
     </g>
     <g id="text_8">
      <!-- 0 -->
      <g transform="translate(40.6375 149.239219) scale(0.1 -0.1)">
       <use xlink:href="#DejaVuSans-30"/>
      </g>
     </g>
    </g>
    <g id="ytick_6">
     <g id="line2d_9">
      <g>
       <use xlink:href="#mf6669ff38f" x="54" y="125.057647" style="stroke: #000000; stroke-width: 0.8"/>
      </g>
     </g>
     <g id="text_9">
      <!-- 25 -->
      <g transform="translate(34.275 128.856866) scale(0.1 -0.1)">
       <use xlink:href="#DejaVuSans-32"/>
       <use xlink:href="#DejaVuSans-35" x="63.623047"/>
      </g>
     </g>
    </g>
    <g id="text_10">
     <!-- current in A -->
     <g transform="translate(19.815625 174.630625) rotate(-90) scale(0.1 -0.1)">
      <defs>
       <path id="DejaVuSans-63" d="M 3122 3366 
L 3122 2828 
Q 2878 2963 2633 3030 
Q 2388 3097 2138 3097 
Q 1578 3097 1268 2742 
Q 959 2388 959 1747 
Q 959 1106 1268 751 
Q 1578 397 2138 397 
Q 2388 397 2633 464 
Q 2878 531 3122 666 
L 3122 134 
Q 2881 22 2623 -34 
Q 2366 -91 2075 -91 
Q 1284 -91 818 406 
Q 353 903 353 1747 
Q 353 2603 823 3093 
Q 1294 3584 2113 3584 
Q 2378 3584 2631 3529 
Q 2884 3475 3122 3366 
z
" transform="scale(0.015625)"/>
       <path id="DejaVuSans-75" d="M 544 1381 
L 544 3500 
L 1119 3500 
L 1119 1403 
Q 1119 906 1312 657 
Q 1506 409 1894 409 
Q 2359 409 2629 706 
Q 2900 1003 2900 1516 
L 2900 3500 
L 3475 3500 
L 3475 0 
L 2900 0 
L 2900 538 
Q 2691 219 2414 64 
Q 2138 -91 1772 -91 
Q 1169 -91 856 284 
Q 544 659 544 1381 
z
M 1991 3584 
L 1991 3584 
z
" transform="scale(0.015625)"/>
       <path id="DejaVuSans-72" d="M 2631 2963 
Q 2534 3019 2420 3045 
Q 2306 3072 2169 3072 
Q 1681 3072 1420 2755 
Q 1159 2438 1159 1844 
L 1159 0 
L 581 0 
L 581 3500 
L 1159 3500 
L 1159 2956 
Q 1341 3275 1631 3429 
Q 1922 3584 2338 3584 
Q 2397 3584 2469 3576 
Q 2541 3569 2628 3553 
L 2631 2963 
z
" transform="scale(0.015625)"/>
       <path id="DejaVuSans-41" d="M 2188 4044 
L 1331 1722 
L 3047 1722 
L 2188 4044 
z
M 1831 4666 
L 2547 4666 
L 4325 0 
L 3669 0 
L 3244 1197 
L 1141 1197 
L 716 0 
L 50 0 
L 1831 4666 
z
" transform="scale(0.015625)"/>
      </defs>
      <use xlink:href="#DejaVuSans-63"/>
      <use xlink:href="#DejaVuSans-75" x="54.980469"/>
      <use xlink:href="#DejaVuSans-72" x="118.359375"/>
      <use xlink:href="#DejaVuSans-72" x="157.722656"/>
      <use xlink:href="#DejaVuSans-65" x="196.585938"/>
      <use xlink:href="#DejaVuSans-6e" x="258.109375"/>
      <use xlink:href="#DejaVuSans-74" x="321.488281"/>
      <use xlink:href="#DejaVuSans-20" x="360.697266"/>
      <use xlink:href="#DejaVuSans-69" x="392.484375"/>
      <use xlink:href="#DejaVuSans-6e" x="420.267578"/>
      <use xlink:href="#DejaVuSans-20" x="483.646484"/>
      <use xlink:href="#DejaVuSans-41" x="515.433594"/>
     </g>
    </g>
   </g>
   <g id="line2d_10">
    <path d="M 54 145.44 
L 388.8 145.44 
" clip-path="url(#p81fea09726)" style="fill: none; stroke: #808080; stroke-width: 1.5; stroke-linecap: square"/>
   </g>
   <g id="line2d_11">
    <path d="M 54 153.592941 
L 58.262806 151.810686 
L 62.525612 149.774451 
L 68.919821 146.423444 
L 77.445433 141.872181 
L 81.708239 139.765069 
L 85.971045 137.884198 
L 90.233851 136.304554 
L 94.496657 135.08911 
L 98.759463 134.286324 
L 100.890866 134.050361 
L 103.022269 133.9282 
L 105.153672 133.921061 
L 107.285075 134.029015 
L 109.416478 134.250984 
L 113.679284 135.026978 
L 117.94209 136.218106 
L 122.204896 137.776882 
L 126.467702 139.641163 
L 130.730508 141.736625 
L 139.25612 146.281048 
L 145.650329 149.641755 
L 149.913135 151.69114 
L 154.175941 153.491311 
L 158.438747 154.970503 
L 162.701553 156.069743 
L 166.964359 156.745209 
L 169.095762 156.914917 
L 171.227165 156.969972 
L 173.358568 156.909823 
L 175.489971 156.735071 
L 179.752777 156.049872 
L 184.015583 154.94169 
L 188.278389 153.454706 
L 192.541195 151.648201 
L 196.804001 149.594194 
L 203.19821 146.230148 
L 211.723822 141.688336 
L 215.986628 139.597115 
L 220.249434 137.73883 
L 224.51224 136.187567 
L 228.775046 135.005169 
L 233.037852 134.238776 
L 235.169255 134.021814 
L 237.300658 133.918939 
L 239.432061 133.931179 
L 241.563464 134.058411 
L 245.82627 134.651631 
L 250.089076 135.674949 
L 254.351882 137.087569 
L 258.614688 138.833174 
L 262.877494 140.842172 
L 269.271703 144.172238 
L 279.928718 149.821694 
L 284.191524 151.853155 
L 288.45433 153.628944 
L 292.717136 155.078265 
L 296.979942 156.143339 
L 301.242748 156.781705 
L 303.374151 156.932222 
L 305.505554 156.967913 
L 307.636957 156.88842 
L 309.76836 156.694539 
L 314.031166 155.972482 
L 318.293972 154.830529 
L 322.556778 153.314205 
L 326.819584 151.483961 
L 331.08239 149.412763 
L 337.476599 146.036627 
L 346.002211 141.505552 
L 350.265017 139.430812 
L 354.527823 137.595639 
L 358.790629 136.073197 
L 363.053435 134.924179 
L 367.316241 134.194394 
L 369.447644 133.996495 
L 371.579047 133.912935 
L 373.71045 133.944551 
L 375.841853 134.091025 
L 380.104659 134.721562 
L 384.367465 135.779409 
L 388.630271 137.222394 
L 388.630271 137.222394 
" clip-path="url(#p81fea09726)" style="fill: none; stroke: #ff0000; stroke-width: 1.5; stroke-linecap: square"/>
   </g>
   <g id="patch_10">
    <path d="M 54 178.051765 
L 54 112.828235 
" style="fill: none; stroke: #000000; stroke-width: 0.8; stroke-linejoin: miter; stroke-linecap: square"/>
   </g>
   <g id="patch_11">
    <path d="M 388.8 178.051765 
L 388.8 112.828235 
" style="fill: none; stroke: #000000; stroke-width: 0.8; stroke-linejoin: miter; stroke-linecap: square"/>
   </g>
   <g id="patch_12">
    <path d="M 54 178.051765 
L 388.8 178.051765 
" style="fill: none; stroke: #000000; stroke-width: 0.8; stroke-linejoin: miter; stroke-linecap: square"/>
   </g>
   <g id="patch_13">
    <path d="M 54 112.828235 
L 388.8 112.828235 
" style="fill: none; stroke: #000000; stroke-width: 0.8; stroke-linejoin: miter; stroke-linecap: square"/>
   </g>
   <g id="text_11">
    <g id="patch_14">
     <path d="M 188.3 147.125932 
L 254.5 147.125932 
L 254.5 127.447807 
L 188.3 127.447807 
z
" style="fill: #ff0000; opacity: 0.75; stroke: #000000; stroke-linejoin: miter"/>
    </g>
    <!-- $I_{RMS}$ = 10 A -->
    <g transform="translate(193.3 140.046245) scale(0.1 -0.1)">
     <defs>
      <path id="DejaVuSans-49" d="M 628 4666 
L 1259 4666 
L 1259 0 
L 628 0 
L 628 4666 
z
" transform="scale(0.015625)"/>
      <path id="DejaVuSans-31" d="M 794 531 
L 1825 531 
L 1825 4091 
L 703 3866 
L 703 4441 
L 1819 4666 
L 2450 4666 
L 2450 531 
L 3481 531 
L 3481 0 
L 794 0 
L 794 531 
z
" transform="scale(0.015625)"/>
     </defs>
     <use xlink:href="#DejaVuSans-49" transform="translate(0 0.78125)"/>
     <use xlink:href="#DejaVuSans-52" transform="translate(30.449219 -15.625) scale(0.7)"/>
     <use xlink:href="#DejaVuSans-4d" transform="translate(79.086914 -15.625) scale(0.7)"/>
     <use xlink:href="#DejaVuSans-53" transform="translate(139.482422 -15.625) scale(0.7)"/>
     <use xlink:href="#DejaVuSans-20" transform="translate(186.650391 0.78125)"/>
     <use xlink:href="#DejaVuSans-3d" transform="translate(218.4375 0.78125)"/>
     <use xlink:href="#DejaVuSans-20" transform="translate(302.226562 0.78125)"/>
     <use xlink:href="#DejaVuSans-31" transform="translate(334.013672 0.78125)"/>
     <use xlink:href="#DejaVuSans-30" transform="translate(397.636719 0.78125)"/>
     <use xlink:href="#DejaVuSans-20" transform="translate(461.259766 0.78125)"/>
     <use xlink:href="#DejaVuSans-41" transform="translate(493.046875 0.78125)"/>
    </g>
   </g>
  </g>
  <g id="axes_3">
   <g id="patch_15">
    <path d="M 54 256.32 
L 388.8 256.32 
L 388.8 191.096471 
L 54 191.096471 
z
" style="fill: #ffffff"/>
   </g>
   <g id="matplotlib.axis_5">
    <g id="xtick_1">
     <g id="line2d_12">
      <defs>
       <path id="m8f47cad22f" d="M 0 0 
L 0 3.5 
" style="stroke: #000000; stroke-width: 0.8"/>
      </defs>
      <g>
       <use xlink:href="#m8f47cad22f" x="54" y="256.32" style="stroke: #000000; stroke-width: 0.8"/>
      </g>
     </g>
     <g id="text_12">
      <!-- 0 -->
      <g transform="translate(50.81875 270.918437) scale(0.1 -0.1)">
       <use xlink:href="#DejaVuSans-30"/>
      </g>
     </g>
    </g>
    <g id="xtick_2">
     <g id="line2d_13">
      <g>
       <use xlink:href="#m8f47cad22f" x="120.96" y="256.32" style="stroke: #000000; stroke-width: 0.8"/>
      </g>
     </g>
     <g id="text_13">
      <!-- 10 -->
      <g transform="translate(114.5975 270.918437) scale(0.1 -0.1)">
       <use xlink:href="#DejaVuSans-31"/>
       <use xlink:href="#DejaVuSans-30" x="63.623047"/>
      </g>
     </g>
    </g>
    <g id="xtick_3">
     <g id="line2d_14">
      <g>
       <use xlink:href="#m8f47cad22f" x="187.92" y="256.32" style="stroke: #000000; stroke-width: 0.8"/>
      </g>
     </g>
     <g id="text_14">
      <!-- 20 -->
      <g transform="translate(181.5575 270.918437) scale(0.1 -0.1)">
       <use xlink:href="#DejaVuSans-32"/>
       <use xlink:href="#DejaVuSans-30" x="63.623047"/>
      </g>
     </g>
    </g>
    <g id="xtick_4">
     <g id="line2d_15">
      <g>
       <use xlink:href="#m8f47cad22f" x="254.88" y="256.32" style="stroke: #000000; stroke-width: 0.8"/>
      </g>
     </g>
     <g id="text_15">
      <!-- 30 -->
      <g transform="translate(248.5175 270.918437) scale(0.1 -0.1)">
       <use xlink:href="#DejaVuSans-33"/>
       <use xlink:href="#DejaVuSans-30" x="63.623047"/>
      </g>
     </g>
    </g>
    <g id="xtick_5">
     <g id="line2d_16">
      <g>
       <use xlink:href="#m8f47cad22f" x="321.84" y="256.32" style="stroke: #000000; stroke-width: 0.8"/>
      </g>
     </g>
     <g id="text_16">
      <!-- 40 -->
      <g transform="translate(315.4775 270.918437) scale(0.1 -0.1)">
       <defs>
        <path id="DejaVuSans-34" d="M 2419 4116 
L 825 1625 
L 2419 1625 
L 2419 4116 
z
M 2253 4666 
L 3047 4666 
L 3047 1625 
L 3713 1625 
L 3713 1100 
L 3047 1100 
L 3047 0 
L 2419 0 
L 2419 1100 
L 313 1100 
L 313 1709 
L 2253 4666 
z
" transform="scale(0.015625)"/>
       </defs>
       <use xlink:href="#DejaVuSans-34"/>
       <use xlink:href="#DejaVuSans-30" x="63.623047"/>
      </g>
     </g>
    </g>
    <g id="xtick_6">
     <g id="line2d_17">
      <g>
       <use xlink:href="#m8f47cad22f" x="388.8" y="256.32" style="stroke: #000000; stroke-width: 0.8"/>
      </g>
     </g>
     <g id="text_17">
      <!-- 50 -->
      <g transform="translate(382.4375 270.918437) scale(0.1 -0.1)">
       <use xlink:href="#DejaVuSans-35"/>
       <use xlink:href="#DejaVuSans-30" x="63.623047"/>
      </g>
     </g>
    </g>
    <g id="text_18">
     <!-- time in milliseconds -->
     <g transform="translate(171.503906 284.596563) scale(0.1 -0.1)">
      <defs>
       <path id="DejaVuSans-6d" d="M 3328 2828 
Q 3544 3216 3844 3400 
Q 4144 3584 4550 3584 
Q 5097 3584 5394 3201 
Q 5691 2819 5691 2113 
L 5691 0 
L 5113 0 
L 5113 2094 
Q 5113 2597 4934 2840 
Q 4756 3084 4391 3084 
Q 3944 3084 3684 2787 
Q 3425 2491 3425 1978 
L 3425 0 
L 2847 0 
L 2847 2094 
Q 2847 2600 2669 2842 
Q 2491 3084 2119 3084 
Q 1678 3084 1418 2786 
Q 1159 2488 1159 1978 
L 1159 0 
L 581 0 
L 581 3500 
L 1159 3500 
L 1159 2956 
Q 1356 3278 1631 3431 
Q 1906 3584 2284 3584 
Q 2666 3584 2933 3390 
Q 3200 3197 3328 2828 
z
" transform="scale(0.015625)"/>
       <path id="DejaVuSans-73" d="M 2834 3397 
L 2834 2853 
Q 2591 2978 2328 3040 
Q 2066 3103 1784 3103 
Q 1356 3103 1142 2972 
Q 928 2841 928 2578 
Q 928 2378 1081 2264 
Q 1234 2150 1697 2047 
L 1894 2003 
Q 2506 1872 2764 1633 
Q 3022 1394 3022 966 
Q 3022 478 2636 193 
Q 2250 -91 1575 -91 
Q 1294 -91 989 -36 
Q 684 19 347 128 
L 347 722 
Q 666 556 975 473 
Q 1284 391 1588 391 
Q 1994 391 2212 530 
Q 2431 669 2431 922 
Q 2431 1156 2273 1281 
Q 2116 1406 1581 1522 
L 1381 1569 
Q 847 1681 609 1914 
Q 372 2147 372 2553 
Q 372 3047 722 3315 
Q 1072 3584 1716 3584 
Q 2034 3584 2315 3537 
Q 2597 3491 2834 3397 
z
" transform="scale(0.015625)"/>
       <path id="DejaVuSans-64" d="M 2906 2969 
L 2906 4863 
L 3481 4863 
L 3481 0 
L 2906 0 
L 2906 525 
Q 2725 213 2448 61 
Q 2172 -91 1784 -91 
Q 1150 -91 751 415 
Q 353 922 353 1747 
Q 353 2572 751 3078 
Q 1150 3584 1784 3584 
Q 2172 3584 2448 3432 
Q 2725 3281 2906 2969 
z
M 947 1747 
Q 947 1113 1208 752 
Q 1469 391 1925 391 
Q 2381 391 2643 752 
Q 2906 1113 2906 1747 
Q 2906 2381 2643 2742 
Q 2381 3103 1925 3103 
Q 1469 3103 1208 2742 
Q 947 2381 947 1747 
z
" transform="scale(0.015625)"/>
      </defs>
      <use xlink:href="#DejaVuSans-74"/>
      <use xlink:href="#DejaVuSans-69" x="39.208984"/>
      <use xlink:href="#DejaVuSans-6d" x="66.992188"/>
      <use xlink:href="#DejaVuSans-65" x="164.404297"/>
      <use xlink:href="#DejaVuSans-20" x="225.927734"/>
      <use xlink:href="#DejaVuSans-69" x="257.714844"/>
      <use xlink:href="#DejaVuSans-6e" x="285.498047"/>
      <use xlink:href="#DejaVuSans-20" x="348.876953"/>
      <use xlink:href="#DejaVuSans-6d" x="380.664062"/>
      <use xlink:href="#DejaVuSans-69" x="478.076172"/>
      <use xlink:href="#DejaVuSans-6c" x="505.859375"/>
      <use xlink:href="#DejaVuSans-6c" x="533.642578"/>
      <use xlink:href="#DejaVuSans-69" x="561.425781"/>
      <use xlink:href="#DejaVuSans-73" x="589.208984"/>
      <use xlink:href="#DejaVuSans-65" x="641.308594"/>
      <use xlink:href="#DejaVuSans-63" x="702.832031"/>
      <use xlink:href="#DejaVuSans-6f" x="757.8125"/>
      <use xlink:href="#DejaVuSans-6e" x="818.994141"/>
      <use xlink:href="#DejaVuSans-64" x="882.373047"/>
      <use xlink:href="#DejaVuSans-73" x="945.849609"/>
     </g>
    </g>
   </g>
   <g id="matplotlib.axis_6">
    <g id="ytick_7">
     <g id="line2d_18">
      <g>
       <use xlink:href="#mf6669ff38f" x="54" y="253.355294" style="stroke: #000000; stroke-width: 0.8"/>
      </g>
     </g>
     <g id="text_19">
      <!-- 0 -->
      <g transform="translate(40.6375 257.154513) scale(0.1 -0.1)">
       <use xlink:href="#DejaVuSans-30"/>
      </g>
     </g>
    </g>
    <g id="ytick_8">
     <g id="line2d_19">
      <g>
       <use xlink:href="#mf6669ff38f" x="54" y="227.575117" style="stroke: #000000; stroke-width: 0.8"/>
      </g>
     </g>
     <g id="text_20">
      <!-- 2 -->
      <g transform="translate(40.6375 231.374335) scale(0.1 -0.1)">
       <use xlink:href="#DejaVuSans-32"/>
      </g>
     </g>
    </g>
    <g id="ytick_9">
     <g id="line2d_20">
      <g>
       <use xlink:href="#mf6669ff38f" x="54" y="201.794939" style="stroke: #000000; stroke-width: 0.8"/>
      </g>
     </g>
     <g id="text_21">
      <!-- 4 -->
      <g transform="translate(40.6375 205.594158) scale(0.1 -0.1)">
       <use xlink:href="#DejaVuSans-34"/>
      </g>
     </g>
    </g>
    <g id="text_22">
     <!-- active power in kW -->
     <g transform="translate(34.557812 271.525423) rotate(-90) scale(0.1 -0.1)">
      <defs>
       <path id="DejaVuSans-70" d="M 1159 525 
L 1159 -1331 
L 581 -1331 
L 581 3500 
L 1159 3500 
L 1159 2969 
Q 1341 3281 1617 3432 
Q 1894 3584 2278 3584 
Q 2916 3584 3314 3078 
Q 3713 2572 3713 1747 
Q 3713 922 3314 415 
Q 2916 -91 2278 -91 
Q 1894 -91 1617 61 
Q 1341 213 1159 525 
z
M 3116 1747 
Q 3116 2381 2855 2742 
Q 2594 3103 2138 3103 
Q 1681 3103 1420 2742 
Q 1159 2381 1159 1747 
Q 1159 1113 1420 752 
Q 1681 391 2138 391 
Q 2594 391 2855 752 
Q 3116 1113 3116 1747 
z
" transform="scale(0.015625)"/>
       <path id="DejaVuSans-77" d="M 269 3500 
L 844 3500 
L 1563 769 
L 2278 3500 
L 2956 3500 
L 3675 769 
L 4391 3500 
L 4966 3500 
L 4050 0 
L 3372 0 
L 2619 2869 
L 1863 0 
L 1184 0 
L 269 3500 
z
" transform="scale(0.015625)"/>
       <path id="DejaVuSans-6b" d="M 581 4863 
L 1159 4863 
L 1159 1991 
L 2875 3500 
L 3609 3500 
L 1753 1863 
L 3688 0 
L 2938 0 
L 1159 1709 
L 1159 0 
L 581 0 
L 581 4863 
z
" transform="scale(0.015625)"/>
       <path id="DejaVuSans-57" d="M 213 4666 
L 850 4666 
L 1831 722 
L 2809 4666 
L 3519 4666 
L 4500 722 
L 5478 4666 
L 6119 4666 
L 4947 0 
L 4153 0 
L 3169 4050 
L 2175 0 
L 1381 0 
L 213 4666 
z
" transform="scale(0.015625)"/>
      </defs>
      <use xlink:href="#DejaVuSans-61"/>
      <use xlink:href="#DejaVuSans-63" x="61.279297"/>
      <use xlink:href="#DejaVuSans-74" x="116.259766"/>
      <use xlink:href="#DejaVuSans-69" x="155.46875"/>
      <use xlink:href="#DejaVuSans-76" x="183.251953"/>
      <use xlink:href="#DejaVuSans-65" x="242.431641"/>
      <use xlink:href="#DejaVuSans-20" x="303.955078"/>
      <use xlink:href="#DejaVuSans-70" x="335.742188"/>
      <use xlink:href="#DejaVuSans-6f" x="399.21875"/>
      <use xlink:href="#DejaVuSans-77" x="460.400391"/>
      <use xlink:href="#DejaVuSans-65" x="542.1875"/>
      <use xlink:href="#DejaVuSans-72" x="603.710938"/>
      <use xlink:href="#DejaVuSans-20" x="644.824219"/>
      <use xlink:href="#DejaVuSans-69" x="676.611328"/>
      <use xlink:href="#DejaVuSans-6e" x="704.394531"/>
      <use xlink:href="#DejaVuSans-20" x="767.773438"/>
      <use xlink:href="#DejaVuSans-6b" x="799.560547"/>
      <use xlink:href="#DejaVuSans-57" x="857.470703"/>
     </g>
    </g>
   </g>
   <g id="line2d_21">
    <path d="M 54 253.355294 
L 388.8 253.355294 
" clip-path="url(#pdb6f632483)" style="fill: none; stroke: #808080; stroke-width: 1.5; stroke-linecap: square"/>
   </g>
   <g id="line2d_22">
    <path d="M 54 223.70809 
L 58.262806 235.253255 
L 60.394209 240.448161 
L 62.525612 244.975692 
L 64.657015 248.655352 
L 66.788418 251.340443 
L 68.919821 252.923919 
L 71.051224 253.342653 
L 73.182627 252.579949 
L 75.31403 250.666216 
L 77.445433 247.677748 
L 79.576836 243.733685 
L 81.708239 238.991264 
L 83.839642 233.639552 
L 92.365254 210.588596 
L 94.496657 205.568214 
L 96.62806 201.271012 
L 98.759463 197.868305 
L 100.890866 195.495749 
L 103.022269 194.24793 
L 105.153672 194.174595 
L 107.285075 195.278667 
L 109.416478 197.51613 
L 111.547881 200.797784 
L 113.679284 204.992799 
L 115.810687 209.933935 
L 117.94209 215.424202 
L 124.336299 232.94442 
L 126.467702 238.357169 
L 128.599105 243.185906 
L 130.730508 247.238123 
L 132.861911 250.352272 
L 134.993314 252.404202 
L 137.124717 253.312108 
L 139.25612 253.039796 
L 141.387523 251.598121 
L 143.518926 249.044558 
L 145.650329 245.480911 
L 147.781732 241.049249 
L 149.913135 235.926251 
L 154.175941 224.442612 
L 158.438747 212.843009 
L 160.57015 207.579385 
L 162.701553 202.958762 
L 164.832956 199.16535 
L 166.964359 196.350379 
L 169.095762 194.626074 
L 171.227165 194.061176 
L 173.358568 194.678208 
L 175.489971 196.45257 
L 177.621374 199.313523 
L 179.752777 203.14701 
L 181.88418 207.800203 
L 184.015583 213.087594 
L 188.278389 224.704919 
L 192.541195 236.164868 
L 194.672598 241.261414 
L 196.804001 245.658165 
L 198.935404 249.179836 
L 201.066807 251.686028 
L 203.19821 253.076828 
L 205.329613 253.29679 
L 207.461016 252.337143 
L 209.592419 250.236147 
L 211.723822 247.07756 
L 213.855225 242.987306 
L 215.986628 238.128451 
L 218.118031 232.694702 
L 226.643643 209.702099 
L 228.775046 204.790011 
L 230.906449 200.632127 
L 233.037852 197.394209 
L 235.169255 195.205343 
L 237.300658 194.15279 
L 239.432061 194.278515 
L 241.563464 195.577504 
L 243.694867 197.99797 
L 245.82627 201.443418 
L 247.957673 205.776488 
L 250.089076 210.824434 
L 254.351882 222.239497 
L 258.614688 233.886418 
L 260.746091 239.215528 
L 262.877494 243.926405 
L 265.008897 247.831241 
L 267.1403 250.774364 
L 269.271703 252.63844 
L 271.403106 253.349154 
L 273.534509 252.878173 
L 275.665912 251.244272 
L 277.797315 248.512591 
L 279.928718 244.792032 
L 282.060121 240.230923 
L 284.191524 235.011101 
L 288.45433 223.445674 
L 292.717136 211.921676 
L 294.848539 206.752094 
L 296.979942 202.258493 
L 299.111345 198.620021 
L 301.242748 195.981731 
L 303.374151 194.448803 
L 305.505554 194.082351 
L 307.636957 194.896983 
L 309.76836 196.860224 
L 311.899763 199.893804 
L 314.031166 203.876784 
L 316.162569 208.650376 
L 318.293972 214.024272 
L 326.819584 237.062394 
L 328.950987 242.054818 
L 331.08239 246.315816 
L 333.213793 249.675515 
L 335.345196 251.999975 
L 337.476599 253.196527 
L 339.608002 253.217467 
L 341.739405 252.061962 
L 343.870808 249.776078 
L 346.002211 246.450945 
L 348.133614 242.219126 
L 350.265017 237.249331 
L 352.39642 231.739689 
L 358.790629 214.222765 
L 360.922032 208.83144 
L 363.053435 204.033201 
L 365.184838 200.019337 
L 367.316241 196.94987 
L 369.447644 194.947168 
L 371.579047 194.091073 
L 373.71045 194.415715 
L 375.841853 195.908152 
L 377.973256 198.508884 
L 380.104659 202.11423 
L 382.236062 206.580454 
L 384.367465 211.729504 
L 388.630271 223.235933 
L 388.630271 223.235933 
" clip-path="url(#pdb6f632483)" style="fill: none; stroke: #00ffff; stroke-width: 1.5; stroke-linecap: square"/>
   </g>
   <g id="line2d_23">
    <path d="M 54 224.625864 
L 58.262806 235.813631 
L 60.394209 240.847721 
L 62.525612 245.235096 
L 64.657015 248.800846 
L 66.788418 251.402816 
L 68.919821 252.937273 
L 71.051224 253.343044 
L 73.182627 252.603951 
L 75.31403 250.749461 
L 77.445433 247.853505 
L 79.576836 244.031536 
L 81.708239 239.435925 
L 83.839642 234.249883 
L 92.365254 211.912504 
L 94.496657 207.047536 
L 96.62806 202.88336 
L 98.759463 199.58599 
L 100.890866 197.28688 
L 103.022269 196.077689 
L 105.153672 196.006623 
L 107.285075 197.076517 
L 109.416478 199.244716 
L 111.547881 202.424781 
L 113.679284 206.489934 
L 115.810687 211.278109 
L 117.94209 216.598417 
L 124.336299 233.57627 
L 126.467702 238.821459 
L 128.599105 243.500715 
L 130.730508 247.42749 
L 132.861911 250.445235 
L 134.993314 252.433645 
L 137.124717 253.313445 
L 139.25612 253.049563 
L 141.387523 251.652517 
L 143.518926 249.178004 
L 145.650329 245.724674 
L 147.781732 241.430202 
L 149.913135 236.465793 
L 154.175941 225.337648 
L 158.438747 214.097128 
L 160.57015 208.996448 
L 162.701553 204.518864 
L 164.832956 200.842882 
L 166.964359 198.115053 
L 169.095762 196.444126 
L 171.227165 195.896716 
L 173.358568 196.494647 
L 175.489971 198.21408 
L 177.621374 200.986468 
L 179.752777 204.701284 
L 181.88418 209.210431 
L 184.015583 214.334141 
L 188.278389 225.591835 
L 192.541195 236.697024 
L 194.672598 241.635799 
L 196.804001 245.896442 
L 198.935404 249.309093 
L 201.066807 251.737703 
L 203.19821 253.085449 
L 205.329613 253.298601 
L 207.461016 252.368662 
L 209.592419 250.332704 
L 211.723822 247.271897 
L 213.855225 243.308263 
L 215.986628 238.599821 
L 218.118031 233.334282 
L 226.643643 211.05345 
L 228.775046 206.293423 
L 230.906449 202.264253 
L 233.037852 199.12657 
L 235.169255 197.005463 
L 237.300658 195.985494 
L 239.432061 196.107327 
L 241.563464 197.366103 
L 243.694867 199.71164 
L 245.82627 203.050429 
L 247.957673 207.249362 
L 250.089076 212.141042 
L 254.351882 223.202734 
L 258.614688 234.489107 
L 260.746091 239.653246 
L 262.877494 244.21829 
L 265.008897 248.002247 
L 267.1403 250.854261 
L 269.271703 252.660631 
L 271.403106 253.349344 
L 273.534509 252.892943 
L 275.665912 251.309622 
L 277.797315 248.662504 
L 279.928718 245.057121 
L 282.060121 240.637208 
L 284.191524 235.578974 
L 288.45433 224.371571 
L 292.717136 213.204316 
L 294.848539 208.194767 
L 296.979942 203.840273 
L 299.111345 200.314435 
L 301.242748 197.757817 
L 303.374151 196.272343 
L 305.505554 195.917235 
L 307.636957 196.706649 
L 309.76836 198.609115 
L 311.899763 201.548786 
L 314.031166 205.408467 
L 316.162569 210.034285 
L 318.293972 215.241824 
L 326.819584 237.566766 
L 328.950987 242.404642 
L 331.08239 246.533734 
L 333.213793 249.789428 
L 335.345196 252.041931 
L 337.476599 253.201442 
L 339.608002 253.221734 
L 341.739405 252.101999 
L 343.870808 249.886878 
L 346.002211 246.66468 
L 348.133614 242.563863 
L 350.265017 237.747916 
L 352.39642 232.408833 
L 358.790629 215.434172 
L 360.922032 210.209744 
L 363.053435 205.560041 
L 365.184838 201.670433 
L 367.316241 198.695985 
L 369.447644 196.75528 
L 371.579047 195.925687 
L 373.71045 196.240279 
L 375.841853 197.686516 
L 377.973256 200.206738 
L 380.104659 203.700475 
L 382.236062 208.028441 
L 384.367465 213.018093 
L 388.630271 224.168323 
L 388.630271 224.168323 
" clip-path="url(#pdb6f632483)" style="fill: none; stroke: #008b8b; stroke-width: 1.5; stroke-linecap: square"/>
   </g>
   <g id="patch_16">
    <path d="M 54 256.32 
L 54 191.096471 
" style="fill: none; stroke: #000000; stroke-width: 0.8; stroke-linejoin: miter; stroke-linecap: square"/>
   </g>
   <g id="patch_17">
    <path d="M 388.8 256.32 
L 388.8 191.096471 
" style="fill: none; stroke: #000000; stroke-width: 0.8; stroke-linejoin: miter; stroke-linecap: square"/>
   </g>
   <g id="patch_18">
    <path d="M 54 256.32 
L 388.8 256.32 
" style="fill: none; stroke: #000000; stroke-width: 0.8; stroke-linejoin: miter; stroke-linecap: square"/>
   </g>
   <g id="patch_19">
    <path d="M 54 191.096471 
L 388.8 191.096471 
" style="fill: none; stroke: #000000; stroke-width: 0.8; stroke-linejoin: miter; stroke-linecap: square"/>
   </g>
   <g id="text_23">
    <g id="patch_20">
     <path d="M 124.932 233.545777 
L 210.732 233.545777 
L 210.732 213.867652 
L 124.932 213.867652 
z
" style="fill: #00ffff; opacity: 0.75; stroke: #000000; stroke-linejoin: miter"/>
    </g>
    <!-- $P_{mean}$ = 2.3 kW -->
    <g transform="translate(129.932 226.46609) scale(0.1 -0.1)">
     <defs>
      <path id="DejaVuSans-50" d="M 1259 4147 
L 1259 2394 
L 2053 2394 
Q 2494 2394 2734 2622 
Q 2975 2850 2975 3272 
Q 2975 3691 2734 3919 
Q 2494 4147 2053 4147 
L 1259 4147 
z
M 628 4666 
L 2053 4666 
Q 2838 4666 3239 4311 
Q 3641 3956 3641 3272 
Q 3641 2581 3239 2228 
Q 2838 1875 2053 1875 
L 1259 1875 
L 1259 0 
L 628 0 
L 628 4666 
z
" transform="scale(0.015625)"/>
      <path id="DejaVuSans-2e" d="M 684 794 
L 1344 794 
L 1344 0 
L 684 0 
L 684 794 
z
" transform="scale(0.015625)"/>
     </defs>
     <use xlink:href="#DejaVuSans-50" transform="translate(0 0.015625)"/>
     <use xlink:href="#DejaVuSans-6d" transform="translate(61.259766 -16.390625) scale(0.7)"/>
     <use xlink:href="#DejaVuSans-65" transform="translate(129.448242 -16.390625) scale(0.7)"/>
     <use xlink:href="#DejaVuSans-61" transform="translate(172.514648 -16.390625) scale(0.7)"/>
     <use xlink:href="#DejaVuSans-6e" transform="translate(215.410156 -16.390625) scale(0.7)"/>
     <use xlink:href="#DejaVuSans-20" transform="translate(262.509766 0.015625)"/>
     <use xlink:href="#DejaVuSans-3d" transform="translate(294.296875 0.015625)"/>
     <use xlink:href="#DejaVuSans-20" transform="translate(378.085938 0.015625)"/>
     <use xlink:href="#DejaVuSans-32" transform="translate(409.873047 0.015625)"/>
     <use xlink:href="#DejaVuSans-2e" transform="translate(473.496094 0.015625)"/>
     <use xlink:href="#DejaVuSans-33" transform="translate(505.283203 0.015625)"/>
     <use xlink:href="#DejaVuSans-20" transform="translate(568.90625 0.015625)"/>
     <use xlink:href="#DejaVuSans-6b" transform="translate(600.693359 0.015625)"/>
     <use xlink:href="#DejaVuSans-57" transform="translate(658.603516 0.015625)"/>
    </g>
   </g>
   <g id="text_24">
    <g id="patch_21">
     <path d="M 232.368 234.463594 
L 317.568 234.463594 
L 317.568 214.785469 
L 232.368 214.785469 
z
" style="fill: #008b8b; opacity: 0.75; stroke: #000000; stroke-linejoin: miter"/>
    </g>
    <!-- $P_{mean}$ = 2.2 kW -->
    <g transform="translate(237.368 227.383906) scale(0.1 -0.1)">
     <use xlink:href="#DejaVuSans-50" transform="translate(0 0.015625)"/>
     <use xlink:href="#DejaVuSans-6d" transform="translate(61.259766 -16.390625) scale(0.7)"/>
     <use xlink:href="#DejaVuSans-65" transform="translate(129.448242 -16.390625) scale(0.7)"/>
     <use xlink:href="#DejaVuSans-61" transform="translate(172.514648 -16.390625) scale(0.7)"/>
     <use xlink:href="#DejaVuSans-6e" transform="translate(215.410156 -16.390625) scale(0.7)"/>
     <use xlink:href="#DejaVuSans-20" transform="translate(262.509766 0.015625)"/>
     <use xlink:href="#DejaVuSans-3d" transform="translate(294.296875 0.015625)"/>
     <use xlink:href="#DejaVuSans-20" transform="translate(378.085938 0.015625)"/>
     <use xlink:href="#DejaVuSans-32" transform="translate(409.873047 0.015625)"/>
     <use xlink:href="#DejaVuSans-2e" transform="translate(473.496094 0.015625)"/>
     <use xlink:href="#DejaVuSans-32" transform="translate(499.783203 0.015625)"/>
     <use xlink:href="#DejaVuSans-20" transform="translate(563.40625 0.015625)"/>
     <use xlink:href="#DejaVuSans-6b" transform="translate(595.193359 0.015625)"/>
     <use xlink:href="#DejaVuSans-57" transform="translate(653.103516 0.015625)"/>
    </g>
   </g>
  </g>
  <g id="text_25">
   <!-- $cos_{phi}$ = 1.0 / $U_{drop}$ = 3% / $P_{loss}$ = 71W -->
   <g transform="translate(102.12 14.76) scale(0.12 -0.12)">
    <defs>
     <path id="DejaVuSans-68" d="M 3513 2113 
L 3513 0 
L 2938 0 
L 2938 2094 
Q 2938 2591 2744 2837 
Q 2550 3084 2163 3084 
Q 1697 3084 1428 2787 
Q 1159 2491 1159 1978 
L 1159 0 
L 581 0 
L 581 4863 
L 1159 4863 
L 1159 2956 
Q 1366 3272 1645 3428 
Q 1925 3584 2291 3584 
Q 2894 3584 3203 3211 
Q 3513 2838 3513 2113 
z
" transform="scale(0.015625)"/>
     <path id="DejaVuSans-2f" d="M 1625 4666 
L 2156 4666 
L 531 -594 
L 0 -594 
L 1625 4666 
z
" transform="scale(0.015625)"/>
     <path id="DejaVuSans-25" d="M 4653 2053 
Q 4381 2053 4226 1822 
Q 4072 1591 4072 1178 
Q 4072 772 4226 539 
Q 4381 306 4653 306 
Q 4919 306 5073 539 
Q 5228 772 5228 1178 
Q 5228 1588 5073 1820 
Q 4919 2053 4653 2053 
z
M 4653 2450 
Q 5147 2450 5437 2106 
Q 5728 1763 5728 1178 
Q 5728 594 5436 251 
Q 5144 -91 4653 -91 
Q 4153 -91 3862 251 
Q 3572 594 3572 1178 
Q 3572 1766 3864 2108 
Q 4156 2450 4653 2450 
z
M 1428 4353 
Q 1159 4353 1004 4120 
Q 850 3888 850 3481 
Q 850 3069 1003 2837 
Q 1156 2606 1428 2606 
Q 1700 2606 1854 2837 
Q 2009 3069 2009 3481 
Q 2009 3884 1853 4118 
Q 1697 4353 1428 4353 
z
M 4250 4750 
L 4750 4750 
L 1831 -91 
L 1331 -91 
L 4250 4750 
z
M 1428 4750 
Q 1922 4750 2215 4408 
Q 2509 4066 2509 3481 
Q 2509 2891 2217 2550 
Q 1925 2209 1428 2209 
Q 931 2209 642 2551 
Q 353 2894 353 3481 
Q 353 4063 643 4406 
Q 934 4750 1428 4750 
z
" transform="scale(0.015625)"/>
     <path id="DejaVuSans-37" d="M 525 4666 
L 3525 4666 
L 3525 4397 
L 1831 0 
L 1172 0 
L 2766 4134 
L 525 4134 
L 525 4666 
z
" transform="scale(0.015625)"/>
    </defs>
    <use xlink:href="#DejaVuSans-63" transform="translate(0 0.78125)"/>
    <use xlink:href="#DejaVuSans-6f" transform="translate(54.980469 0.78125)"/>
    <use xlink:href="#DejaVuSans-73" transform="translate(116.162109 0.78125)"/>
    <use xlink:href="#DejaVuSans-70" transform="translate(169.21875 -15.625) scale(0.7)"/>
    <use xlink:href="#DejaVuSans-68" transform="translate(213.652344 -15.625) scale(0.7)"/>
    <use xlink:href="#DejaVuSans-69" transform="translate(258.017578 -15.625) scale(0.7)"/>
    <use xlink:href="#DejaVuSans-20" transform="translate(280.200195 0.78125)"/>
    <use xlink:href="#DejaVuSans-3d" transform="translate(311.987305 0.78125)"/>
    <use xlink:href="#DejaVuSans-20" transform="translate(395.776367 0.78125)"/>
    <use xlink:href="#DejaVuSans-31" transform="translate(427.563477 0.78125)"/>
    <use xlink:href="#DejaVuSans-2e" transform="translate(491.186523 0.78125)"/>
    <use xlink:href="#DejaVuSans-30" transform="translate(522.973633 0.78125)"/>
    <use xlink:href="#DejaVuSans-20" transform="translate(586.59668 0.78125)"/>
    <use xlink:href="#DejaVuSans-2f" transform="translate(618.383789 0.78125)"/>
    <use xlink:href="#DejaVuSans-20" transform="translate(652.075195 0.78125)"/>
    <use xlink:href="#DejaVuSans-55" transform="translate(683.862305 0.78125)"/>
    <use xlink:href="#DejaVuSans-64" transform="translate(758.012695 -15.625) scale(0.7)"/>
    <use xlink:href="#DejaVuSans-72" transform="translate(802.446289 -15.625) scale(0.7)"/>
    <use xlink:href="#DejaVuSans-6f" transform="translate(831.225586 -15.625) scale(0.7)"/>
    <use xlink:href="#DejaVuSans-70" transform="translate(874.052734 -15.625) scale(0.7)"/>
    <use xlink:href="#DejaVuSans-20" transform="translate(921.220703 0.78125)"/>
    <use xlink:href="#DejaVuSans-3d" transform="translate(953.007812 0.78125)"/>
    <use xlink:href="#DejaVuSans-20" transform="translate(1036.796875 0.78125)"/>
    <use xlink:href="#DejaVuSans-33" transform="translate(1068.583984 0.78125)"/>
    <use xlink:href="#DejaVuSans-25" transform="translate(1132.207031 0.78125)"/>
    <use xlink:href="#DejaVuSans-20" transform="translate(1227.226562 0.78125)"/>
    <use xlink:href="#DejaVuSans-2f" transform="translate(1259.013672 0.78125)"/>
    <use xlink:href="#DejaVuSans-20" transform="translate(1292.705078 0.78125)"/>
    <use xlink:href="#DejaVuSans-50" transform="translate(1324.492188 0.78125)"/>
    <use xlink:href="#DejaVuSans-6c" transform="translate(1385.751953 -15.625) scale(0.7)"/>
    <use xlink:href="#DejaVuSans-6f" transform="translate(1405.200195 -15.625) scale(0.7)"/>
    <use xlink:href="#DejaVuSans-73" transform="translate(1448.027344 -15.625) scale(0.7)"/>
    <use xlink:href="#DejaVuSans-73" transform="translate(1484.49707 -15.625) scale(0.7)"/>
    <use xlink:href="#DejaVuSans-20" transform="translate(1523.701172 0.78125)"/>
    <use xlink:href="#DejaVuSans-3d" transform="translate(1555.488281 0.78125)"/>
    <use xlink:href="#DejaVuSans-20" transform="translate(1639.277344 0.78125)"/>
    <use xlink:href="#DejaVuSans-37" transform="translate(1671.064453 0.78125)"/>
    <use xlink:href="#DejaVuSans-31" transform="translate(1734.6875 0.78125)"/>
    <use xlink:href="#DejaVuSans-57" transform="translate(1798.310547 0.78125)"/>
   </g>
  </g>
 </g>
 <defs>
  <clipPath id="p8b7f9f2335">
   <rect x="54" y="34.56" width="334.8" height="65.223529"/>
  </clipPath>
  <clipPath id="p81fea09726">
   <rect x="54" y="112.828235" width="334.8" height="65.223529"/>
  </clipPath>
  <clipPath id="pdb6f632483">
   <rect x="54" y="191.096471" width="334.8" height="65.223529"/>
  </clipPath>
 </defs>
</svg>
