<?xml version="1.0" encoding="utf-8" standalone="no"?>
<!DOCTYPE svg PUBLIC "-//W3C//DTD SVG 1.1//EN"
  "http://www.w3.org/Graphics/SVG/1.1/DTD/svg11.dtd">
<svg xmlns:xlink="http://www.w3.org/1999/xlink" width="432pt" height="288pt" viewBox="0 0 432 288" xmlns="http://www.w3.org/2000/svg" version="1.1">
 <metadata>
  <rdf:RDF xmlns:dc="http://purl.org/dc/elements/1.1/" xmlns:cc="http://creativecommons.org/ns#" xmlns:rdf="http://www.w3.org/1999/02/22-rdf-syntax-ns#">
   <cc:Work>
    <dc:type rdf:resource="http://purl.org/dc/dcmitype/StillImage"/>
    <dc:date>2022-10-13T19:17:12.088639</dc:date>
    <dc:format>image/svg+xml</dc:format>
    <dc:creator>
     <cc:Agent>
      <dc:title>Matplotlib v3.6.0, https://matplotlib.org/</dc:title>
     </cc:Agent>
    </dc:creator>
   </cc:Work>
  </rdf:RDF>
 </metadata>
 <defs>
  <style type="text/css">*{stroke-linejoin: round; stroke-linecap: butt}</style>
 </defs>
 <g id="figure_1">
  <g id="patch_1">
   <path d="M 0 288 
L 432 288 
L 432 0 
L 0 0 
z
" style="fill: #ffffff"/>
  </g>
  <g id="axes_1">
   <g id="patch_2">
    <path d="M 54 99.783529 
L 388.8 99.783529 
L 388.8 34.56 
L 54 34.56 
z
" style="fill: #ffffff"/>
   </g>
   <g id="matplotlib.axis_1"/>
   <g id="matplotlib.axis_2">
    <g id="ytick_1">
     <g id="line2d_1">
      <defs>
       <path id="m2aaca4bdef" d="M 0 0 
L -3.5 0 
" style="stroke: #000000; stroke-width: 0.8"/>
      </defs>
      <g>
       <use xlink:href="#m2aaca4bdef" x="54" y="89.957517" style="stroke: #000000; stroke-width: 0.8"/>
      </g>
     </g>
     <g id="text_1">
      <!-- −250 -->
      <g transform="translate(19.532812 93.756735) scale(0.1 -0.1)">
       <defs>
        <path id="DejaVuSans-2212" d="M 678 2272 
L 4684 2272 
L 4684 1741 
L 678 1741 
L 678 2272 
z
" transform="scale(0.015625)"/>
        <path id="DejaVuSans-32" d="M 1228 531 
L 3431 531 
L 3431 0 
L 469 0 
L 469 531 
Q 828 903 1448 1529 
Q 2069 2156 2228 2338 
Q 2531 2678 2651 2914 
Q 2772 3150 2772 3378 
Q 2772 3750 2511 3984 
Q 2250 4219 1831 4219 
Q 1534 4219 1204 4116 
Q 875 4013 500 3803 
L 500 4441 
Q 881 4594 1212 4672 
Q 1544 4750 1819 4750 
Q 2544 4750 2975 4387 
Q 3406 4025 3406 3419 
Q 3406 3131 3298 2873 
Q 3191 2616 2906 2266 
Q 2828 2175 2409 1742 
Q 1991 1309 1228 531 
z
" transform="scale(0.015625)"/>
        <path id="DejaVuSans-35" d="M 691 4666 
L 3169 4666 
L 3169 4134 
L 1269 4134 
L 1269 2991 
Q 1406 3038 1543 3061 
Q 1681 3084 1819 3084 
Q 2600 3084 3056 2656 
Q 3513 2228 3513 1497 
Q 3513 744 3044 326 
Q 2575 -91 1722 -91 
Q 1428 -91 1123 -41 
Q 819 9 494 109 
L 494 744 
Q 775 591 1075 516 
Q 1375 441 1709 441 
Q 2250 441 2565 725 
Q 2881 1009 2881 1497 
Q 2881 1984 2565 2268 
Q 2250 2553 1709 2553 
Q 1456 2553 1204 2497 
Q 953 2441 691 2322 
L 691 4666 
z
" transform="scale(0.015625)"/>
        <path id="DejaVuSans-30" d="M 2034 4250 
Q 1547 4250 1301 3770 
Q 1056 3291 1056 2328 
Q 1056 1369 1301 889 
Q 1547 409 2034 409 
Q 2525 409 2770 889 
Q 3016 1369 3016 2328 
Q 3016 3291 2770 3770 
Q 2525 4250 2034 4250 
z
M 2034 4750 
Q 2819 4750 3233 4129 
Q 3647 3509 3647 2328 
Q 3647 1150 3233 529 
Q 2819 -91 2034 -91 
Q 1250 -91 836 529 
Q 422 1150 422 2328 
Q 422 3509 836 4129 
Q 1250 4750 2034 4750 
z
" transform="scale(0.015625)"/>
       </defs>
       <use xlink:href="#DejaVuSans-2212"/>
       <use xlink:href="#DejaVuSans-32" x="83.789062"/>
       <use xlink:href="#DejaVuSans-35" x="147.412109"/>
       <use xlink:href="#DejaVuSans-30" x="211.035156"/>
      </g>
     </g>
    </g>
    <g id="ytick_2">
     <g id="line2d_2">
      <g>
       <use xlink:href="#m2aaca4bdef" x="54" y="67.168027" style="stroke: #000000; stroke-width: 0.8"/>
      </g>
     </g>
     <g id="text_2">
      <!-- 0 -->
      <g transform="translate(40.6375 70.967245) scale(0.1 -0.1)">
       <use xlink:href="#DejaVuSans-30"/>
      </g>
     </g>
    </g>
    <g id="ytick_3">
     <g id="line2d_3">
      <g>
       <use xlink:href="#m2aaca4bdef" x="54" y="44.378537" style="stroke: #000000; stroke-width: 0.8"/>
      </g>
     </g>
     <g id="text_3">
      <!-- 250 -->
      <g transform="translate(27.9125 48.177755) scale(0.1 -0.1)">
       <use xlink:href="#DejaVuSans-32"/>
       <use xlink:href="#DejaVuSans-35" x="63.623047"/>
       <use xlink:href="#DejaVuSans-30" x="127.246094"/>
      </g>
     </g>
    </g>
    <g id="text_4">
     <!-- voltage in V -->
     <g transform="translate(13.453125 97.010827) rotate(-90) scale(0.1 -0.1)">
      <defs>
       <path id="DejaVuSans-76" d="M 191 3500 
L 800 3500 
L 1894 563 
L 2988 3500 
L 3597 3500 
L 2284 0 
L 1503 0 
L 191 3500 
z
" transform="scale(0.015625)"/>
       <path id="DejaVuSans-6f" d="M 1959 3097 
Q 1497 3097 1228 2736 
Q 959 2375 959 1747 
Q 959 1119 1226 758 
Q 1494 397 1959 397 
Q 2419 397 2687 759 
Q 2956 1122 2956 1747 
Q 2956 2369 2687 2733 
Q 2419 3097 1959 3097 
z
M 1959 3584 
Q 2709 3584 3137 3096 
Q 3566 2609 3566 1747 
Q 3566 888 3137 398 
Q 2709 -91 1959 -91 
Q 1206 -91 779 398 
Q 353 888 353 1747 
Q 353 2609 779 3096 
Q 1206 3584 1959 3584 
z
" transform="scale(0.015625)"/>
       <path id="DejaVuSans-6c" d="M 603 4863 
L 1178 4863 
L 1178 0 
L 603 0 
L 603 4863 
z
" transform="scale(0.015625)"/>
       <path id="DejaVuSans-74" d="M 1172 4494 
L 1172 3500 
L 2356 3500 
L 2356 3053 
L 1172 3053 
L 1172 1153 
Q 1172 725 1289 603 
Q 1406 481 1766 481 
L 2356 481 
L 2356 0 
L 1766 0 
Q 1100 0 847 248 
Q 594 497 594 1153 
L 594 3053 
L 172 3053 
L 172 3500 
L 594 3500 
L 594 4494 
L 1172 4494 
z
" transform="scale(0.015625)"/>
       <path id="DejaVuSans-61" d="M 2194 1759 
Q 1497 1759 1228 1600 
Q 959 1441 959 1056 
Q 959 750 1161 570 
Q 1363 391 1709 391 
Q 2188 391 2477 730 
Q 2766 1069 2766 1631 
L 2766 1759 
L 2194 1759 
z
M 3341 1997 
L 3341 0 
L 2766 0 
L 2766 531 
Q 2569 213 2275 61 
Q 1981 -91 1556 -91 
Q 1019 -91 701 211 
Q 384 513 384 1019 
Q 384 1609 779 1909 
Q 1175 2209 1959 2209 
L 2766 2209 
L 2766 2266 
Q 2766 2663 2505 2880 
Q 2244 3097 1772 3097 
Q 1472 3097 1187 3025 
Q 903 2953 641 2809 
L 641 3341 
Q 956 3463 1253 3523 
Q 1550 3584 1831 3584 
Q 2591 3584 2966 3190 
Q 3341 2797 3341 1997 
z
" transform="scale(0.015625)"/>
       <path id="DejaVuSans-67" d="M 2906 1791 
Q 2906 2416 2648 2759 
Q 2391 3103 1925 3103 
Q 1463 3103 1205 2759 
Q 947 2416 947 1791 
Q 947 1169 1205 825 
Q 1463 481 1925 481 
Q 2391 481 2648 825 
Q 2906 1169 2906 1791 
z
M 3481 434 
Q 3481 -459 3084 -895 
Q 2688 -1331 1869 -1331 
Q 1566 -1331 1297 -1286 
Q 1028 -1241 775 -1147 
L 775 -588 
Q 1028 -725 1275 -790 
Q 1522 -856 1778 -856 
Q 2344 -856 2625 -561 
Q 2906 -266 2906 331 
L 2906 616 
Q 2728 306 2450 153 
Q 2172 0 1784 0 
Q 1141 0 747 490 
Q 353 981 353 1791 
Q 353 2603 747 3093 
Q 1141 3584 1784 3584 
Q 2172 3584 2450 3431 
Q 2728 3278 2906 2969 
L 2906 3500 
L 3481 3500 
L 3481 434 
z
" transform="scale(0.015625)"/>
       <path id="DejaVuSans-65" d="M 3597 1894 
L 3597 1613 
L 953 1613 
Q 991 1019 1311 708 
Q 1631 397 2203 397 
Q 2534 397 2845 478 
Q 3156 559 3463 722 
L 3463 178 
Q 3153 47 2828 -22 
Q 2503 -91 2169 -91 
Q 1331 -91 842 396 
Q 353 884 353 1716 
Q 353 2575 817 3079 
Q 1281 3584 2069 3584 
Q 2775 3584 3186 3129 
Q 3597 2675 3597 1894 
z
M 3022 2063 
Q 3016 2534 2758 2815 
Q 2500 3097 2075 3097 
Q 1594 3097 1305 2825 
Q 1016 2553 972 2059 
L 3022 2063 
z
" transform="scale(0.015625)"/>
       <path id="DejaVuSans-20" transform="scale(0.015625)"/>
       <path id="DejaVuSans-69" d="M 603 3500 
L 1178 3500 
L 1178 0 
L 603 0 
L 603 3500 
z
M 603 4863 
L 1178 4863 
L 1178 4134 
L 603 4134 
L 603 4863 
z
" transform="scale(0.015625)"/>
       <path id="DejaVuSans-6e" d="M 3513 2113 
L 3513 0 
L 2938 0 
L 2938 2094 
Q 2938 2591 2744 2837 
Q 2550 3084 2163 3084 
Q 1697 3084 1428 2787 
Q 1159 2491 1159 1978 
L 1159 0 
L 581 0 
L 581 3500 
L 1159 3500 
L 1159 2956 
Q 1366 3272 1645 3428 
Q 1925 3584 2291 3584 
Q 2894 3584 3203 3211 
Q 3513 2838 3513 2113 
z
" transform="scale(0.015625)"/>
       <path id="DejaVuSans-56" d="M 1831 0 
L 50 4666 
L 709 4666 
L 2188 738 
L 3669 4666 
L 4325 4666 
L 2547 0 
L 1831 0 
z
" transform="scale(0.015625)"/>
      </defs>
      <use xlink:href="#DejaVuSans-76"/>
      <use xlink:href="#DejaVuSans-6f" x="59.179688"/>
      <use xlink:href="#DejaVuSans-6c" x="120.361328"/>
      <use xlink:href="#DejaVuSans-74" x="148.144531"/>
      <use xlink:href="#DejaVuSans-61" x="187.353516"/>
      <use xlink:href="#DejaVuSans-67" x="248.632812"/>
      <use xlink:href="#DejaVuSans-65" x="312.109375"/>
      <use xlink:href="#DejaVuSans-20" x="373.632812"/>
      <use xlink:href="#DejaVuSans-69" x="405.419922"/>
      <use xlink:href="#DejaVuSans-6e" x="433.203125"/>
      <use xlink:href="#DejaVuSans-20" x="496.582031"/>
      <use xlink:href="#DejaVuSans-56" x="528.369141"/>
     </g>
    </g>
   </g>
   <g id="line2d_4">
    <path d="M 54 67.168027 
L 388.8 67.168027 
" clip-path="url(#p3b3a9af262)" style="fill: none; stroke: #808080; stroke-width: 1.5; stroke-linecap: square"/>
   </g>
   <g id="line2d_5">
    <path d="M 54 88.134358 
L 56.131403 85.936473 
L 60.394209 81.001953 
L 64.657015 75.515919 
L 71.051224 66.735085 
L 77.445433 57.992925 
L 81.708239 52.574216 
L 85.971045 47.737316 
L 88.102448 45.598429 
L 90.233851 43.675058 
L 92.365254 41.986421 
L 94.496657 40.54939 
L 96.62806 39.378324 
L 98.759463 38.484923 
L 100.890866 37.878115 
L 103.022269 37.563961 
L 105.153672 37.545602 
L 107.285075 37.82322 
L 109.416478 38.394041 
L 111.547881 39.252363 
L 113.679284 40.389609 
L 115.810687 41.794416 
L 117.94209 43.452748 
L 120.073493 45.348035 
L 122.204896 47.46134 
L 124.336299 49.771548 
L 128.599105 54.888603 
L 132.861911 60.495201 
L 145.650329 77.973377 
L 149.913135 83.243632 
L 152.044538 85.650654 
L 154.175941 87.873004 
L 156.307344 89.888476 
L 158.438747 91.676933 
L 160.57015 93.220506 
L 162.701553 94.50377 
L 164.832956 95.513905 
L 166.964359 96.240817 
L 169.095762 96.677243 
L 171.227165 96.818824 
L 173.358568 96.664143 
L 175.489971 96.214746 
L 177.621374 95.475125 
L 179.752777 94.452668 
L 181.88418 93.157592 
L 184.015583 91.602837 
L 186.146986 89.803938 
L 188.278389 87.778868 
L 190.409792 85.547861 
L 194.672598 80.559038 
L 198.935404 75.036358 
L 207.461016 63.282619 
L 211.723822 57.520144 
L 215.986628 52.1423 
L 218.118031 49.665452 
L 220.249434 47.363484 
L 222.380837 45.259396 
L 224.51224 43.374213 
L 226.643643 41.726769 
L 228.775046 40.333526 
L 230.906449 39.208404 
L 233.037852 38.362646 
L 235.169255 37.804701 
L 237.300658 37.540145 
L 239.432061 37.571621 
L 241.563464 37.898815 
L 243.694867 38.518457 
L 245.82627 39.424356 
L 247.957673 40.60746 
L 250.089076 42.055949 
L 252.220479 43.75535 
L 254.351882 45.688682 
L 256.483285 47.836629 
L 258.614688 50.177728 
L 262.877494 55.344124 
L 267.1403 60.981902 
L 279.928718 78.436114 
L 284.191524 83.660275 
L 286.322927 86.03788 
L 288.45433 88.226943 
L 290.585733 90.205592 
L 292.717136 91.954058 
L 294.848539 93.45487 
L 296.979942 94.693032 
L 299.111345 95.656174 
L 301.242748 96.334672 
L 303.374151 96.721746 
L 305.505554 96.813529 
L 307.636957 96.609104 
L 309.76836 96.110513 
L 311.899763 95.322739 
L 314.031166 94.253652 
L 316.162569 92.913935 
L 318.293972 91.316973 
L 320.425375 89.478722 
L 322.556778 87.417551 
L 324.688181 85.154053 
L 328.950987 80.112337 
L 333.213793 74.554573 
L 348.133614 54.318165 
L 352.39642 49.265503 
L 354.527823 46.99525 
L 356.659226 44.926558 
L 358.790629 43.080094 
L 360.922032 41.47431 
L 363.053435 40.125248 
L 365.184838 39.046389 
L 367.316241 38.248512 
L 369.447644 37.739589 
L 371.579047 37.524706 
L 373.71045 37.606009 
L 375.841853 37.982685 
L 377.973256 38.650972 
L 380.104659 39.604192 
L 382.236062 40.832821 
L 384.367465 42.324582 
L 386.498868 44.064571 
L 388.630271 46.035402 
L 388.630271 46.035402 
" clip-path="url(#p3b3a9af262)" style="fill: none; stroke: #90ee90; stroke-width: 1.5; stroke-linecap: square"/>
   </g>
   <g id="line2d_6">
    <path d="M 54 90.510026 
L 56.131403 89.185407 
L 58.262806 87.640798 
L 60.394209 85.891632 
L 62.525612 83.955386 
L 66.788418 79.600714 
L 71.051224 74.750391 
L 77.445433 66.972066 
L 83.839642 59.211245 
L 88.102448 54.391395 
L 92.365254 50.080909 
L 94.496657 48.171367 
L 96.62806 46.451633 
L 98.759463 44.93889 
L 100.890866 43.648253 
L 103.022269 42.592618 
L 105.153672 41.782533 
L 107.285075 41.226091 
L 109.416478 40.928852 
L 111.547881 40.893787 
L 113.679284 41.121245 
L 115.810687 41.608954 
L 117.94209 42.35204 
L 120.073493 43.34308 
L 122.204896 44.572171 
L 124.336299 46.027032 
L 126.467702 47.693127 
L 128.599105 49.553808 
L 130.730508 51.590485 
L 134.993314 56.108871 
L 139.25612 61.068151 
L 152.044538 76.574038 
L 156.307344 81.264235 
L 158.438747 83.409487 
L 160.57015 85.39246 
L 162.701553 87.19334 
L 164.832956 88.794134 
L 166.964359 90.178848 
L 169.095762 91.333644 
L 171.227165 92.246986 
L 173.358568 92.909747 
L 175.489971 93.315306 
L 177.621374 93.459609 
L 179.752777 93.341216 
L 181.88418 92.961309 
L 184.015583 92.323683 
L 186.146986 91.434711 
L 188.278389 90.303274 
L 190.409792 88.940678 
L 192.541195 87.360536 
L 194.672598 85.578637 
L 196.804001 83.612786 
L 201.066807 79.209435 
L 205.329613 74.326032 
L 213.855225 63.909186 
L 218.118031 58.791031 
L 222.380837 54.006839 
L 226.643643 49.747343 
L 228.775046 47.868432 
L 230.906449 46.182355 
L 233.037852 44.70596 
L 235.169255 43.453999 
L 237.300658 42.438981 
L 239.432061 41.671047 
L 241.563464 41.15787 
L 243.694867 40.904578 
L 245.82627 40.913702 
L 247.957673 41.185151 
L 250.089076 41.716212 
L 252.220479 42.501579 
L 254.351882 43.533405 
L 256.483285 44.80138 
L 258.614688 46.292835 
L 260.746091 47.992869 
L 262.877494 49.884494 
L 267.1403 54.165193 
L 271.403106 58.964273 
L 277.797315 66.712553 
L 284.191524 74.501518 
L 288.45433 79.371429 
L 292.717136 83.754828 
L 294.848539 85.708521 
L 296.979942 87.476964 
L 299.111345 89.042486 
L 301.242748 90.389446 
L 303.374151 91.504386 
L 305.505554 92.376164 
L 307.636957 92.996071 
L 309.76836 93.357913 
L 311.899763 93.458074 
L 314.031166 93.295554 
L 316.162569 92.871976 
L 318.293972 92.191573 
L 320.425375 91.261143 
L 322.556778 90.089982 
L 324.688181 88.689793 
L 326.819584 87.074565 
L 328.950987 85.260438 
L 331.08239 83.265537 
L 335.345196 78.814752 
L 339.608002 73.899649 
L 354.527823 55.943519 
L 358.790629 51.443798 
L 360.922032 49.418703 
L 363.053435 47.570953 
L 365.184838 45.919011 
L 367.316241 44.479381 
L 369.447644 43.26645 
L 371.579047 42.292334 
L 373.71045 41.566769 
L 375.841853 41.097003 
L 377.973256 40.88773 
L 380.104659 40.941041 
L 382.236062 41.256403 
L 384.367465 41.830666 
L 386.498868 42.658091 
L 388.630271 43.730411 
L 388.630271 43.730411 
" clip-path="url(#p3b3a9af262)" style="fill: none; stroke: #006400; stroke-width: 1.5; stroke-linecap: square"/>
   </g>
   <g id="patch_3">
    <path d="M 54 99.783529 
L 54 34.56 
" style="fill: none; stroke: #000000; stroke-width: 0.8; stroke-linejoin: miter; stroke-linecap: square"/>
   </g>
   <g id="patch_4">
    <path d="M 388.8 99.783529 
L 388.8 34.56 
" style="fill: none; stroke: #000000; stroke-width: 0.8; stroke-linejoin: miter; stroke-linecap: square"/>
   </g>
   <g id="patch_5">
    <path d="M 54 99.783529 
L 388.8 99.783529 
" style="fill: none; stroke: #000000; stroke-width: 0.8; stroke-linejoin: miter; stroke-linecap: square"/>
   </g>
   <g id="patch_6">
    <path d="M 54 34.56 
L 388.8 34.56 
" style="fill: none; stroke: #000000; stroke-width: 0.8; stroke-linejoin: miter; stroke-linecap: square"/>
   </g>
   <g id="text_5">
    <g id="patch_7">
     <path d="M 129.382 56.040272 
L 206.282 56.040272 
L 206.282 36.362147 
L 129.382 36.362147 
z
" style="fill: #90ee90; opacity: 0.75; stroke: #000000; stroke-linejoin: miter"/>
    </g>
    <!-- $U_{RMS}$ = 230 V -->
    <g transform="translate(134.382 48.960585) scale(0.1 -0.1)">
     <defs>
      <path id="DejaVuSans-55" d="M 556 4666 
L 1191 4666 
L 1191 1831 
Q 1191 1081 1462 751 
Q 1734 422 2344 422 
Q 2950 422 3222 751 
Q 3494 1081 3494 1831 
L 3494 4666 
L 4128 4666 
L 4128 1753 
Q 4128 841 3676 375 
Q 3225 -91 2344 -91 
Q 1459 -91 1007 375 
Q 556 841 556 1753 
L 556 4666 
z
" transform="scale(0.015625)"/>
      <path id="DejaVuSans-52" d="M 2841 2188 
Q 3044 2119 3236 1894 
Q 3428 1669 3622 1275 
L 4263 0 
L 3584 0 
L 2988 1197 
Q 2756 1666 2539 1819 
Q 2322 1972 1947 1972 
L 1259 1972 
L 1259 0 
L 628 0 
L 628 4666 
L 2053 4666 
Q 2853 4666 3247 4331 
Q 3641 3997 3641 3322 
Q 3641 2881 3436 2590 
Q 3231 2300 2841 2188 
z
M 1259 4147 
L 1259 2491 
L 2053 2491 
Q 2509 2491 2742 2702 
Q 2975 2913 2975 3322 
Q 2975 3731 2742 3939 
Q 2509 4147 2053 4147 
L 1259 4147 
z
" transform="scale(0.015625)"/>
      <path id="DejaVuSans-4d" d="M 628 4666 
L 1569 4666 
L 2759 1491 
L 3956 4666 
L 4897 4666 
L 4897 0 
L 4281 0 
L 4281 4097 
L 3078 897 
L 2444 897 
L 1241 4097 
L 1241 0 
L 628 0 
L 628 4666 
z
" transform="scale(0.015625)"/>
      <path id="DejaVuSans-53" d="M 3425 4513 
L 3425 3897 
Q 3066 4069 2747 4153 
Q 2428 4238 2131 4238 
Q 1616 4238 1336 4038 
Q 1056 3838 1056 3469 
Q 1056 3159 1242 3001 
Q 1428 2844 1947 2747 
L 2328 2669 
Q 3034 2534 3370 2195 
Q 3706 1856 3706 1288 
Q 3706 609 3251 259 
Q 2797 -91 1919 -91 
Q 1588 -91 1214 -16 
Q 841 59 441 206 
L 441 856 
Q 825 641 1194 531 
Q 1563 422 1919 422 
Q 2459 422 2753 634 
Q 3047 847 3047 1241 
Q 3047 1584 2836 1778 
Q 2625 1972 2144 2069 
L 1759 2144 
Q 1053 2284 737 2584 
Q 422 2884 422 3419 
Q 422 4038 858 4394 
Q 1294 4750 2059 4750 
Q 2388 4750 2728 4690 
Q 3069 4631 3425 4513 
z
" transform="scale(0.015625)"/>
      <path id="DejaVuSans-3d" d="M 678 2906 
L 4684 2906 
L 4684 2381 
L 678 2381 
L 678 2906 
z
M 678 1631 
L 4684 1631 
L 4684 1100 
L 678 1100 
L 678 1631 
z
" transform="scale(0.015625)"/>
      <path id="DejaVuSans-33" d="M 2597 2516 
Q 3050 2419 3304 2112 
Q 3559 1806 3559 1356 
Q 3559 666 3084 287 
Q 2609 -91 1734 -91 
Q 1441 -91 1130 -33 
Q 819 25 488 141 
L 488 750 
Q 750 597 1062 519 
Q 1375 441 1716 441 
Q 2309 441 2620 675 
Q 2931 909 2931 1356 
Q 2931 1769 2642 2001 
Q 2353 2234 1838 2234 
L 1294 2234 
L 1294 2753 
L 1863 2753 
Q 2328 2753 2575 2939 
Q 2822 3125 2822 3475 
Q 2822 3834 2567 4026 
Q 2313 4219 1838 4219 
Q 1578 4219 1281 4162 
Q 984 4106 628 3988 
L 628 4550 
Q 988 4650 1302 4700 
Q 1616 4750 1894 4750 
Q 2613 4750 3031 4423 
Q 3450 4097 3450 3541 
Q 3450 3153 3228 2886 
Q 3006 2619 2597 2516 
z
" transform="scale(0.015625)"/>
     </defs>
     <use xlink:href="#DejaVuSans-55" transform="translate(0 0.78125)"/>
     <use xlink:href="#DejaVuSans-52" transform="translate(74.150391 -15.625) scale(0.7)"/>
     <use xlink:href="#DejaVuSans-4d" transform="translate(122.788086 -15.625) scale(0.7)"/>
     <use xlink:href="#DejaVuSans-53" transform="translate(183.183594 -15.625) scale(0.7)"/>
     <use xlink:href="#DejaVuSans-20" transform="translate(230.351562 0.78125)"/>
     <use xlink:href="#DejaVuSans-3d" transform="translate(262.138672 0.78125)"/>
     <use xlink:href="#DejaVuSans-20" transform="translate(345.927734 0.78125)"/>
     <use xlink:href="#DejaVuSans-32" transform="translate(377.714844 0.78125)"/>
     <use xlink:href="#DejaVuSans-33" transform="translate(441.337891 0.78125)"/>
     <use xlink:href="#DejaVuSans-30" transform="translate(504.960938 0.78125)"/>
     <use xlink:href="#DejaVuSans-20" transform="translate(568.583984 0.78125)"/>
     <use xlink:href="#DejaVuSans-56" transform="translate(600.371094 0.78125)"/>
    </g>
   </g>
   <g id="text_6">
    <g id="patch_8">
     <path d="M 236.518 56.040272 
L 313.418 56.040272 
L 313.418 36.362147 
L 236.518 36.362147 
z
" style="fill: #006400; opacity: 0.75; stroke: #000000; stroke-linejoin: miter"/>
    </g>
    <!-- $U_{RMS}$ = 204 V -->
    <g transform="translate(241.518 48.960585) scale(0.1 -0.1)">
     <defs>
      <path id="DejaVuSans-34" d="M 2419 4116 
L 825 1625 
L 2419 1625 
L 2419 4116 
z
M 2253 4666 
L 3047 4666 
L 3047 1625 
L 3713 1625 
L 3713 1100 
L 3047 1100 
L 3047 0 
L 2419 0 
L 2419 1100 
L 313 1100 
L 313 1709 
L 2253 4666 
z
" transform="scale(0.015625)"/>
     </defs>
     <use xlink:href="#DejaVuSans-55" transform="translate(0 0.78125)"/>
     <use xlink:href="#DejaVuSans-52" transform="translate(74.150391 -15.625) scale(0.7)"/>
     <use xlink:href="#DejaVuSans-4d" transform="translate(122.788086 -15.625) scale(0.7)"/>
     <use xlink:href="#DejaVuSans-53" transform="translate(183.183594 -15.625) scale(0.7)"/>
     <use xlink:href="#DejaVuSans-20" transform="translate(230.351562 0.78125)"/>
     <use xlink:href="#DejaVuSans-3d" transform="translate(262.138672 0.78125)"/>
     <use xlink:href="#DejaVuSans-20" transform="translate(345.927734 0.78125)"/>
     <use xlink:href="#DejaVuSans-32" transform="translate(377.714844 0.78125)"/>
     <use xlink:href="#DejaVuSans-30" transform="translate(441.337891 0.78125)"/>
     <use xlink:href="#DejaVuSans-34" transform="translate(504.960938 0.78125)"/>
     <use xlink:href="#DejaVuSans-20" transform="translate(568.583984 0.78125)"/>
     <use xlink:href="#DejaVuSans-56" transform="translate(600.371094 0.78125)"/>
    </g>
   </g>
  </g>
  <g id="axes_2">
   <g id="patch_9">
    <path d="M 54 178.051765 
L 388.8 178.051765 
L 388.8 112.828235 
L 54 112.828235 
z
" style="fill: #ffffff"/>
   </g>
   <g id="matplotlib.axis_3"/>
   <g id="matplotlib.axis_4">
    <g id="ytick_4">
     <g id="line2d_7">
      <g>
       <use xlink:href="#m2aaca4bdef" x="54" y="165.822353" style="stroke: #000000; stroke-width: 0.8"/>
      </g>
     </g>
     <g id="text_7">
      <!-- −25 -->
      <g transform="translate(25.895312 169.621572) scale(0.1 -0.1)">
       <use xlink:href="#DejaVuSans-2212"/>
       <use xlink:href="#DejaVuSans-32" x="83.789062"/>
       <use xlink:href="#DejaVuSans-35" x="147.412109"/>
      </g>
     </g>
    </g>
    <g id="ytick_5">
     <g id="line2d_8">
      <g>
       <use xlink:href="#m2aaca4bdef" x="54" y="145.44" style="stroke: #000000; stroke-width: 0.8"/>
      </g>
     </g>
     <g id="text_8">
      <!-- 0 -->
      <g transform="translate(40.6375 149.239219) scale(0.1 -0.1)">
       <use xlink:href="#DejaVuSans-30"/>
      </g>
     </g>
    </g>
    <g id="ytick_6">
     <g id="line2d_9">
      <g>
       <use xlink:href="#m2aaca4bdef" x="54" y="125.057647" style="stroke: #000000; stroke-width: 0.8"/>
      </g>
     </g>
     <g id="text_9">
      <!-- 25 -->
      <g transform="translate(34.275 128.856866) scale(0.1 -0.1)">
       <use xlink:href="#DejaVuSans-32"/>
       <use xlink:href="#DejaVuSans-35" x="63.623047"/>
      </g>
     </g>
    </g>
    <g id="text_10">
     <!-- current in A -->
     <g transform="translate(19.815625 174.630625) rotate(-90) scale(0.1 -0.1)">
      <defs>
       <path id="DejaVuSans-63" d="M 3122 3366 
L 3122 2828 
Q 2878 2963 2633 3030 
Q 2388 3097 2138 3097 
Q 1578 3097 1268 2742 
Q 959 2388 959 1747 
Q 959 1106 1268 751 
Q 1578 397 2138 397 
Q 2388 397 2633 464 
Q 2878 531 3122 666 
L 3122 134 
Q 2881 22 2623 -34 
Q 2366 -91 2075 -91 
Q 1284 -91 818 406 
Q 353 903 353 1747 
Q 353 2603 823 3093 
Q 1294 3584 2113 3584 
Q 2378 3584 2631 3529 
Q 2884 3475 3122 3366 
z
" transform="scale(0.015625)"/>
       <path id="DejaVuSans-75" d="M 544 1381 
L 544 3500 
L 1119 3500 
L 1119 1403 
Q 1119 906 1312 657 
Q 1506 409 1894 409 
Q 2359 409 2629 706 
Q 2900 1003 2900 1516 
L 2900 3500 
L 3475 3500 
L 3475 0 
L 2900 0 
L 2900 538 
Q 2691 219 2414 64 
Q 2138 -91 1772 -91 
Q 1169 -91 856 284 
Q 544 659 544 1381 
z
M 1991 3584 
L 1991 3584 
z
" transform="scale(0.015625)"/>
       <path id="DejaVuSans-72" d="M 2631 2963 
Q 2534 3019 2420 3045 
Q 2306 3072 2169 3072 
Q 1681 3072 1420 2755 
Q 1159 2438 1159 1844 
L 1159 0 
L 581 0 
L 581 3500 
L 1159 3500 
L 1159 2956 
Q 1341 3275 1631 3429 
Q 1922 3584 2338 3584 
Q 2397 3584 2469 3576 
Q 2541 3569 2628 3553 
L 2631 2963 
z
" transform="scale(0.015625)"/>
       <path id="DejaVuSans-41" d="M 2188 4044 
L 1331 1722 
L 3047 1722 
L 2188 4044 
z
M 1831 4666 
L 2547 4666 
L 4325 0 
L 3669 0 
L 3244 1197 
L 1141 1197 
L 716 0 
L 50 0 
L 1831 4666 
z
" transform="scale(0.015625)"/>
      </defs>
      <use xlink:href="#DejaVuSans-63"/>
      <use xlink:href="#DejaVuSans-75" x="54.980469"/>
      <use xlink:href="#DejaVuSans-72" x="118.359375"/>
      <use xlink:href="#DejaVuSans-72" x="157.722656"/>
      <use xlink:href="#DejaVuSans-65" x="196.585938"/>
      <use xlink:href="#DejaVuSans-6e" x="258.109375"/>
      <use xlink:href="#DejaVuSans-74" x="321.488281"/>
      <use xlink:href="#DejaVuSans-20" x="360.697266"/>
      <use xlink:href="#DejaVuSans-69" x="392.484375"/>
      <use xlink:href="#DejaVuSans-6e" x="420.267578"/>
      <use xlink:href="#DejaVuSans-20" x="483.646484"/>
      <use xlink:href="#DejaVuSans-41" x="515.433594"/>
     </g>
    </g>
   </g>
   <g id="line2d_10">
    <path d="M 54 145.44 
L 388.8 145.44 
" clip-path="url(#p45158e5fca)" style="fill: none; stroke: #808080; stroke-width: 1.5; stroke-linecap: square"/>
   </g>
   <g id="line2d_11">
    <path d="M 54 139.471633 
L 58.262806 135.165393 
L 62.525612 131.268768 
L 64.657015 129.523421 
L 66.788418 127.937107 
L 68.919821 126.525675 
L 71.051224 125.30323 
L 73.182627 124.281984 
L 75.31403 123.472143 
L 77.445433 122.881797 
L 79.576836 122.516845 
L 81.708239 122.380933 
L 83.839642 122.475421 
L 85.971045 122.799362 
L 88.102448 123.349522 
L 90.233851 124.120402 
L 92.365254 125.1043 
L 94.496657 126.291387 
L 96.62806 127.669799 
L 98.759463 129.225766 
L 100.890866 130.94374 
L 105.153672 134.795601 
L 109.416478 139.071821 
L 117.94209 148.205296 
L 122.204896 152.69843 
L 126.467702 156.902193 
L 130.730508 160.648994 
L 132.861911 162.303475 
L 134.993314 163.789461 
L 137.124717 165.092106 
L 139.25612 166.198393 
L 141.387523 167.097269 
L 143.518926 167.779753 
L 145.650329 168.239025 
L 147.781732 168.470497 
L 149.913135 168.471856 
L 152.044538 168.243089 
L 154.175941 167.78648 
L 156.307344 167.106593 
L 158.438747 166.21022 
L 160.57015 165.106318 
L 162.701553 163.805917 
L 164.832956 162.32201 
L 166.964359 160.669423 
L 171.227165 156.92578 
L 175.489971 152.724235 
L 181.88418 145.933122 
L 188.278389 139.09796 
L 192.541195 134.81973 
L 196.804001 130.964897 
L 198.935404 129.245112 
L 201.066807 127.687141 
L 203.19821 126.306551 
L 205.329613 125.117136 
L 207.461016 124.13078 
L 209.592419 123.357339 
L 211.723822 122.80454 
L 213.855225 122.477908 
L 215.986628 122.380705 
L 218.118031 122.513903 
L 220.249434 122.876171 
L 222.380837 123.463889 
L 224.51224 124.271185 
L 226.643643 125.289993 
L 228.775046 126.510134 
L 230.906449 127.919415 
L 233.037852 129.503756 
L 237.300658 133.132706 
L 241.563464 137.252309 
L 247.957673 143.988674 
L 256.483285 153.065424 
L 260.746091 157.237011 
L 265.008897 160.938288 
L 267.1403 162.565549 
L 269.271703 164.021697 
L 271.403106 165.292183 
L 273.534509 166.364313 
L 275.665912 167.227373 
L 277.797315 167.872742 
L 279.928718 168.29397 
L 282.060121 168.486848 
L 284.191524 168.449451 
L 286.322927 168.18215 
L 288.45433 167.687617 
L 290.585733 166.970794 
L 292.717136 166.038842 
L 294.848539 164.901073 
L 296.979942 163.568855 
L 299.111345 162.0555 
L 301.242748 160.376128 
L 305.505554 156.587945 
L 309.76836 152.355329 
L 316.162569 145.545412 
L 322.556778 138.726079 
L 326.819584 134.47707 
L 331.08239 130.665119 
L 333.213793 128.971383 
L 335.345196 127.442195 
L 337.476599 126.092836 
L 339.608002 124.936788 
L 341.739405 123.9856 
L 343.870808 123.248778 
L 346.002211 122.733683 
L 348.133614 122.445463 
L 350.265017 122.386996 
L 352.39642 122.558867 
L 354.527823 122.959358 
L 356.659226 123.584469 
L 358.790629 124.427954 
L 360.922032 125.481383 
L 363.053435 126.734233 
L 365.184838 128.173984 
L 367.316241 129.786252 
L 371.579047 133.462336 
L 375.841853 137.615932 
L 382.236062 144.375839 
L 388.630271 151.230804 
L 388.630271 151.230804 
" clip-path="url(#p45158e5fca)" style="fill: none; stroke: #ff0000; stroke-width: 1.5; stroke-linecap: square"/>
   </g>
   <g id="patch_10">
    <path d="M 54 178.051765 
L 54 112.828235 
" style="fill: none; stroke: #000000; stroke-width: 0.8; stroke-linejoin: miter; stroke-linecap: square"/>
   </g>
   <g id="patch_11">
    <path d="M 388.8 178.051765 
L 388.8 112.828235 
" style="fill: none; stroke: #000000; stroke-width: 0.8; stroke-linejoin: miter; stroke-linecap: square"/>
   </g>
   <g id="patch_12">
    <path d="M 54 178.051765 
L 388.8 178.051765 
" style="fill: none; stroke: #000000; stroke-width: 0.8; stroke-linejoin: miter; stroke-linecap: square"/>
   </g>
   <g id="patch_13">
    <path d="M 54 112.828235 
L 388.8 112.828235 
" style="fill: none; stroke: #000000; stroke-width: 0.8; stroke-linejoin: miter; stroke-linecap: square"/>
   </g>
   <g id="text_11">
    <g id="patch_14">
     <path d="M 188.3 139.01456 
L 254.5 139.01456 
L 254.5 119.336435 
L 188.3 119.336435 
z
" style="fill: #ff0000; opacity: 0.75; stroke: #000000; stroke-linejoin: miter"/>
    </g>
    <!-- $I_{RMS}$ = 20 A -->
    <g transform="translate(193.3 131.934873) scale(0.1 -0.1)">
     <defs>
      <path id="DejaVuSans-49" d="M 628 4666 
L 1259 4666 
L 1259 0 
L 628 0 
L 628 4666 
z
" transform="scale(0.015625)"/>
     </defs>
     <use xlink:href="#DejaVuSans-49" transform="translate(0 0.78125)"/>
     <use xlink:href="#DejaVuSans-52" transform="translate(30.449219 -15.625) scale(0.7)"/>
     <use xlink:href="#DejaVuSans-4d" transform="translate(79.086914 -15.625) scale(0.7)"/>
     <use xlink:href="#DejaVuSans-53" transform="translate(139.482422 -15.625) scale(0.7)"/>
     <use xlink:href="#DejaVuSans-20" transform="translate(186.650391 0.78125)"/>
     <use xlink:href="#DejaVuSans-3d" transform="translate(218.4375 0.78125)"/>
     <use xlink:href="#DejaVuSans-20" transform="translate(302.226562 0.78125)"/>
     <use xlink:href="#DejaVuSans-32" transform="translate(334.013672 0.78125)"/>
     <use xlink:href="#DejaVuSans-30" transform="translate(397.636719 0.78125)"/>
     <use xlink:href="#DejaVuSans-20" transform="translate(461.259766 0.78125)"/>
     <use xlink:href="#DejaVuSans-41" transform="translate(493.046875 0.78125)"/>
    </g>
   </g>
  </g>
  <g id="axes_3">
   <g id="patch_15">
    <path d="M 54 256.32 
L 388.8 256.32 
L 388.8 191.096471 
L 54 191.096471 
z
" style="fill: #ffffff"/>
   </g>
   <g id="matplotlib.axis_5">
    <g id="xtick_1">
     <g id="line2d_12">
      <defs>
       <path id="m1647415948" d="M 0 0 
L 0 3.5 
" style="stroke: #000000; stroke-width: 0.8"/>
      </defs>
      <g>
       <use xlink:href="#m1647415948" x="54" y="256.32" style="stroke: #000000; stroke-width: 0.8"/>
      </g>
     </g>
     <g id="text_12">
      <!-- 0 -->
      <g transform="translate(50.81875 270.918437) scale(0.1 -0.1)">
       <use xlink:href="#DejaVuSans-30"/>
      </g>
     </g>
    </g>
    <g id="xtick_2">
     <g id="line2d_13">
      <g>
       <use xlink:href="#m1647415948" x="120.96" y="256.32" style="stroke: #000000; stroke-width: 0.8"/>
      </g>
     </g>
     <g id="text_13">
      <!-- 10 -->
      <g transform="translate(114.5975 270.918437) scale(0.1 -0.1)">
       <defs>
        <path id="DejaVuSans-31" d="M 794 531 
L 1825 531 
L 1825 4091 
L 703 3866 
L 703 4441 
L 1819 4666 
L 2450 4666 
L 2450 531 
L 3481 531 
L 3481 0 
L 794 0 
L 794 531 
z
" transform="scale(0.015625)"/>
       </defs>
       <use xlink:href="#DejaVuSans-31"/>
       <use xlink:href="#DejaVuSans-30" x="63.623047"/>
      </g>
     </g>
    </g>
    <g id="xtick_3">
     <g id="line2d_14">
      <g>
       <use xlink:href="#m1647415948" x="187.92" y="256.32" style="stroke: #000000; stroke-width: 0.8"/>
      </g>
     </g>
     <g id="text_14">
      <!-- 20 -->
      <g transform="translate(181.5575 270.918437) scale(0.1 -0.1)">
       <use xlink:href="#DejaVuSans-32"/>
       <use xlink:href="#DejaVuSans-30" x="63.623047"/>
      </g>
     </g>
    </g>
    <g id="xtick_4">
     <g id="line2d_15">
      <g>
       <use xlink:href="#m1647415948" x="254.88" y="256.32" style="stroke: #000000; stroke-width: 0.8"/>
      </g>
     </g>
     <g id="text_15">
      <!-- 30 -->
      <g transform="translate(248.5175 270.918437) scale(0.1 -0.1)">
       <use xlink:href="#DejaVuSans-33"/>
       <use xlink:href="#DejaVuSans-30" x="63.623047"/>
      </g>
     </g>
    </g>
    <g id="xtick_5">
     <g id="line2d_16">
      <g>
       <use xlink:href="#m1647415948" x="321.84" y="256.32" style="stroke: #000000; stroke-width: 0.8"/>
      </g>
     </g>
     <g id="text_16">
      <!-- 40 -->
      <g transform="translate(315.4775 270.918437) scale(0.1 -0.1)">
       <use xlink:href="#DejaVuSans-34"/>
       <use xlink:href="#DejaVuSans-30" x="63.623047"/>
      </g>
     </g>
    </g>
    <g id="xtick_6">
     <g id="line2d_17">
      <g>
       <use xlink:href="#m1647415948" x="388.8" y="256.32" style="stroke: #000000; stroke-width: 0.8"/>
      </g>
     </g>
     <g id="text_17">
      <!-- 50 -->
      <g transform="translate(382.4375 270.918437) scale(0.1 -0.1)">
       <use xlink:href="#DejaVuSans-35"/>
       <use xlink:href="#DejaVuSans-30" x="63.623047"/>
      </g>
     </g>
    </g>
    <g id="text_18">
     <!-- time in milliseconds -->
     <g transform="translate(171.503906 284.596563) scale(0.1 -0.1)">
      <defs>
       <path id="DejaVuSans-6d" d="M 3328 2828 
Q 3544 3216 3844 3400 
Q 4144 3584 4550 3584 
Q 5097 3584 5394 3201 
Q 5691 2819 5691 2113 
L 5691 0 
L 5113 0 
L 5113 2094 
Q 5113 2597 4934 2840 
Q 4756 3084 4391 3084 
Q 3944 3084 3684 2787 
Q 3425 2491 3425 1978 
L 3425 0 
L 2847 0 
L 2847 2094 
Q 2847 2600 2669 2842 
Q 2491 3084 2119 3084 
Q 1678 3084 1418 2786 
Q 1159 2488 1159 1978 
L 1159 0 
L 581 0 
L 581 3500 
L 1159 3500 
L 1159 2956 
Q 1356 3278 1631 3431 
Q 1906 3584 2284 3584 
Q 2666 3584 2933 3390 
Q 3200 3197 3328 2828 
z
" transform="scale(0.015625)"/>
       <path id="DejaVuSans-73" d="M 2834 3397 
L 2834 2853 
Q 2591 2978 2328 3040 
Q 2066 3103 1784 3103 
Q 1356 3103 1142 2972 
Q 928 2841 928 2578 
Q 928 2378 1081 2264 
Q 1234 2150 1697 2047 
L 1894 2003 
Q 2506 1872 2764 1633 
Q 3022 1394 3022 966 
Q 3022 478 2636 193 
Q 2250 -91 1575 -91 
Q 1294 -91 989 -36 
Q 684 19 347 128 
L 347 722 
Q 666 556 975 473 
Q 1284 391 1588 391 
Q 1994 391 2212 530 
Q 2431 669 2431 922 
Q 2431 1156 2273 1281 
Q 2116 1406 1581 1522 
L 1381 1569 
Q 847 1681 609 1914 
Q 372 2147 372 2553 
Q 372 3047 722 3315 
Q 1072 3584 1716 3584 
Q 2034 3584 2315 3537 
Q 2597 3491 2834 3397 
z
" transform="scale(0.015625)"/>
       <path id="DejaVuSans-64" d="M 2906 2969 
L 2906 4863 
L 3481 4863 
L 3481 0 
L 2906 0 
L 2906 525 
Q 2725 213 2448 61 
Q 2172 -91 1784 -91 
Q 1150 -91 751 415 
Q 353 922 353 1747 
Q 353 2572 751 3078 
Q 1150 3584 1784 3584 
Q 2172 3584 2448 3432 
Q 2725 3281 2906 2969 
z
M 947 1747 
Q 947 1113 1208 752 
Q 1469 391 1925 391 
Q 2381 391 2643 752 
Q 2906 1113 2906 1747 
Q 2906 2381 2643 2742 
Q 2381 3103 1925 3103 
Q 1469 3103 1208 2742 
Q 947 2381 947 1747 
z
" transform="scale(0.015625)"/>
      </defs>
      <use xlink:href="#DejaVuSans-74"/>
      <use xlink:href="#DejaVuSans-69" x="39.208984"/>
      <use xlink:href="#DejaVuSans-6d" x="66.992188"/>
      <use xlink:href="#DejaVuSans-65" x="164.404297"/>
      <use xlink:href="#DejaVuSans-20" x="225.927734"/>
      <use xlink:href="#DejaVuSans-69" x="257.714844"/>
      <use xlink:href="#DejaVuSans-6e" x="285.498047"/>
      <use xlink:href="#DejaVuSans-20" x="348.876953"/>
      <use xlink:href="#DejaVuSans-6d" x="380.664062"/>
      <use xlink:href="#DejaVuSans-69" x="478.076172"/>
      <use xlink:href="#DejaVuSans-6c" x="505.859375"/>
      <use xlink:href="#DejaVuSans-6c" x="533.642578"/>
      <use xlink:href="#DejaVuSans-69" x="561.425781"/>
      <use xlink:href="#DejaVuSans-73" x="589.208984"/>
      <use xlink:href="#DejaVuSans-65" x="641.308594"/>
      <use xlink:href="#DejaVuSans-63" x="702.832031"/>
      <use xlink:href="#DejaVuSans-6f" x="757.8125"/>
      <use xlink:href="#DejaVuSans-6e" x="818.994141"/>
      <use xlink:href="#DejaVuSans-64" x="882.373047"/>
      <use xlink:href="#DejaVuSans-73" x="945.849609"/>
     </g>
    </g>
   </g>
   <g id="matplotlib.axis_6">
    <g id="ytick_7">
     <g id="line2d_18">
      <g>
       <use xlink:href="#m2aaca4bdef" x="54" y="234.578824" style="stroke: #000000; stroke-width: 0.8"/>
      </g>
     </g>
     <g id="text_19">
      <!-- 0 -->
      <g transform="translate(40.6375 238.378042) scale(0.1 -0.1)">
       <use xlink:href="#DejaVuSans-30"/>
      </g>
     </g>
    </g>
    <g id="ytick_8">
     <g id="line2d_19">
      <g>
       <use xlink:href="#m2aaca4bdef" x="54" y="207.402353" style="stroke: #000000; stroke-width: 0.8"/>
      </g>
     </g>
     <g id="text_20">
      <!-- 5 -->
      <g transform="translate(40.6375 211.201572) scale(0.1 -0.1)">
       <use xlink:href="#DejaVuSans-35"/>
      </g>
     </g>
    </g>
    <g id="text_21">
     <!-- active power in kW -->
     <g transform="translate(34.557812 271.525423) rotate(-90) scale(0.1 -0.1)">
      <defs>
       <path id="DejaVuSans-70" d="M 1159 525 
L 1159 -1331 
L 581 -1331 
L 581 3500 
L 1159 3500 
L 1159 2969 
Q 1341 3281 1617 3432 
Q 1894 3584 2278 3584 
Q 2916 3584 3314 3078 
Q 3713 2572 3713 1747 
Q 3713 922 3314 415 
Q 2916 -91 2278 -91 
Q 1894 -91 1617 61 
Q 1341 213 1159 525 
z
M 3116 1747 
Q 3116 2381 2855 2742 
Q 2594 3103 2138 3103 
Q 1681 3103 1420 2742 
Q 1159 2381 1159 1747 
Q 1159 1113 1420 752 
Q 1681 391 2138 391 
Q 2594 391 2855 752 
Q 3116 1113 3116 1747 
z
" transform="scale(0.015625)"/>
       <path id="DejaVuSans-77" d="M 269 3500 
L 844 3500 
L 1563 769 
L 2278 3500 
L 2956 3500 
L 3675 769 
L 4391 3500 
L 4966 3500 
L 4050 0 
L 3372 0 
L 2619 2869 
L 1863 0 
L 1184 0 
L 269 3500 
z
" transform="scale(0.015625)"/>
       <path id="DejaVuSans-6b" d="M 581 4863 
L 1159 4863 
L 1159 1991 
L 2875 3500 
L 3609 3500 
L 1753 1863 
L 3688 0 
L 2938 0 
L 1159 1709 
L 1159 0 
L 581 0 
L 581 4863 
z
" transform="scale(0.015625)"/>
       <path id="DejaVuSans-57" d="M 213 4666 
L 850 4666 
L 1831 722 
L 2809 4666 
L 3519 4666 
L 4500 722 
L 5478 4666 
L 6119 4666 
L 4947 0 
L 4153 0 
L 3169 4050 
L 2175 0 
L 1381 0 
L 213 4666 
z
" transform="scale(0.015625)"/>
      </defs>
      <use xlink:href="#DejaVuSans-61"/>
      <use xlink:href="#DejaVuSans-63" x="61.279297"/>
      <use xlink:href="#DejaVuSans-74" x="116.259766"/>
      <use xlink:href="#DejaVuSans-69" x="155.46875"/>
      <use xlink:href="#DejaVuSans-76" x="183.251953"/>
      <use xlink:href="#DejaVuSans-65" x="242.431641"/>
      <use xlink:href="#DejaVuSans-20" x="303.955078"/>
      <use xlink:href="#DejaVuSans-70" x="335.742188"/>
      <use xlink:href="#DejaVuSans-6f" x="399.21875"/>
      <use xlink:href="#DejaVuSans-77" x="460.400391"/>
      <use xlink:href="#DejaVuSans-65" x="542.1875"/>
      <use xlink:href="#DejaVuSans-72" x="603.710938"/>
      <use xlink:href="#DejaVuSans-20" x="644.824219"/>
      <use xlink:href="#DejaVuSans-69" x="676.611328"/>
      <use xlink:href="#DejaVuSans-6e" x="704.394531"/>
      <use xlink:href="#DejaVuSans-20" x="767.773438"/>
      <use xlink:href="#DejaVuSans-6b" x="799.560547"/>
      <use xlink:href="#DejaVuSans-57" x="857.470703"/>
     </g>
    </g>
   </g>
   <g id="line2d_20">
    <path d="M 54 234.578824 
L 388.8 234.578824 
" clip-path="url(#pa51f3a9104)" style="fill: none; stroke: #808080; stroke-width: 1.5; stroke-linecap: square"/>
   </g>
   <g id="line2d_21">
    <path d="M 54 243.73032 
L 56.131403 245.782308 
L 58.262806 246.889267 
L 60.394209 247.007064 
L 62.525612 246.131005 
L 64.657015 244.296013 
L 66.788418 241.575246 
L 68.919821 238.077171 
L 71.051224 233.941245 
L 73.182627 229.332356 
L 81.708239 209.968089 
L 83.839642 205.863761 
L 85.971045 202.40583 
L 88.102448 199.732151 
L 90.233851 197.949318 
L 92.365254 197.128404 
L 94.496657 197.302139 
L 96.62806 198.463594 
L 98.759463 200.566467 
L 100.890866 203.526924 
L 103.022269 207.226938 
L 105.153672 211.519004 
L 109.416478 221.178063 
L 113.679284 230.979146 
L 115.810687 235.443438 
L 117.94209 239.374878 
L 120.073493 242.616732 
L 122.204896 245.039757 
L 124.336299 246.547356 
L 126.467702 247.079425 
L 128.599105 246.614751 
L 130.730508 245.171861 
L 132.861911 242.808277 
L 134.993314 239.618229 
L 137.124717 235.728893 
L 139.25612 231.295324 
L 143.518926 221.517152 
L 147.781732 211.827468 
L 149.913135 207.501208 
L 152.044538 203.756063 
L 154.175941 200.741343 
L 156.307344 198.577233 
L 158.438747 197.350011 
L 160.57015 197.108602 
L 162.701553 197.86263 
L 164.832956 199.582034 
L 166.964359 202.198267 
L 169.095762 205.607028 
L 171.227165 209.672421 
L 173.358568 214.232371 
L 181.88418 233.641548 
L 184.015583 237.815023 
L 186.146986 241.361099 
L 188.278389 244.138405 
L 190.409792 246.036217 
L 192.541195 246.978878 
L 194.672598 246.928804 
L 196.804001 245.887994 
L 198.935404 243.89794 
L 201.066807 241.037979 
L 203.19821 237.422131 
L 205.329613 233.194546 
L 209.592419 223.595998 
L 213.855225 213.757736 
L 215.986628 209.239462 
L 218.118031 205.233005 
L 220.249434 201.898092 
L 222.380837 199.367673 
L 224.51224 197.74263 
L 226.643643 197.087746 
L 228.775046 197.429132 
L 230.906449 198.753175 
L 233.037852 201.007092 
L 235.169255 204.101026 
L 237.300658 207.91163 
L 239.432061 212.286989 
L 243.694867 222.018682 
L 247.957673 231.759685 
L 250.089076 236.146332 
L 252.220479 239.972106 
L 254.351882 243.084484 
L 256.483285 245.359386 
L 258.614688 246.706118 
L 260.746091 247.070991 
L 262.877494 246.439458 
L 265.008897 244.836697 
L 267.1403 242.326604 
L 269.271703 239.009249 
L 271.403106 235.016885 
L 273.534509 230.508674 
L 282.060121 211.066503 
L 284.191524 206.826442 
L 286.322927 203.194399 
L 288.45433 200.315171 
L 290.585733 198.303544 
L 292.717136 197.239716 
L 294.848539 197.166098 
L 296.979942 198.085625 
L 299.111345 199.961637 
L 301.242748 202.719346 
L 303.374151 206.248809 
L 305.505554 210.409317 
L 307.636957 215.035005 
L 314.031166 229.810862 
L 316.162569 234.380345 
L 318.293972 238.459359 
L 320.425375 241.885285 
L 322.556778 244.521543 
L 324.688181 246.263034 
L 326.819584 247.040329 
L 328.950987 246.822442 
L 331.08239 245.618057 
L 333.213793 243.475191 
L 335.345196 240.479272 
L 337.476599 236.749738 
L 339.608002 232.435275 
L 343.870808 222.756036 
L 348.133614 212.969694 
L 350.265017 208.525353 
L 352.39642 204.621298 
L 354.527823 201.413173 
L 356.659226 199.028876 
L 358.790629 197.56346 
L 360.922032 197.075348 
L 363.053435 197.583998 
L 365.184838 199.069133 
L 367.316241 201.471544 
L 369.447644 204.695456 
L 371.579047 208.612341 
L 373.71045 213.066046 
L 377.973256 222.859369 
L 382.236062 232.529275 
L 384.367465 236.833318 
L 386.498868 240.549099 
L 388.630271 243.528482 
L 388.630271 243.528482 
" clip-path="url(#pa51f3a9104)" style="fill: none; stroke: #00ffff; stroke-width: 1.5; stroke-linecap: square"/>
   </g>
   <g id="line2d_22">
    <path d="M 54 244.767264 
L 56.131403 247.721701 
L 58.262806 249.962354 
L 60.394209 251.399896 
L 62.525612 251.977015 
L 64.657015 251.670705 
L 66.788418 250.493177 
L 68.919821 248.491375 
L 71.051224 245.745105 
L 73.182627 242.363852 
L 75.31403 238.482416 
L 79.576836 229.851727 
L 83.839642 221.215636 
L 85.971045 217.327648 
L 88.102448 213.937591 
L 90.233851 211.180616 
L 92.365254 209.166635 
L 94.496657 207.975939 
L 96.62806 207.655998 
L 98.759463 208.219566 
L 100.890866 209.644175 
L 103.022269 211.873032 
L 105.153672 214.817278 
L 107.285075 218.359536 
L 109.416478 222.358587 
L 117.94209 239.597479 
L 120.073493 243.355304 
L 122.204896 246.57342 
L 124.336299 249.12353 
L 126.467702 250.90397 
L 128.599105 251.84376 
L 130.730508 251.905432 
L 132.861911 251.086528 
L 134.993314 249.419695 
L 137.124717 246.971385 
L 139.25612 243.839204 
L 141.387523 240.148022 
L 143.518926 236.044995 
L 149.913135 222.943164 
L 152.044538 218.892784 
L 154.175941 215.277938 
L 156.307344 212.242738 
L 158.438747 209.908189 
L 160.57015 208.367362 
L 162.701553 207.681684 
L 164.832956 207.878492 
L 166.964359 208.949939 
L 169.095762 210.85331 
L 171.227165 213.512723 
L 173.358568 216.822157 
L 175.489971 220.649675 
L 179.752777 229.234025 
L 184.015583 237.910494 
L 186.146986 241.849719 
L 188.278389 245.309258 
L 190.409792 248.15119 
L 192.541195 250.262215 
L 194.672598 251.558175 
L 196.804001 251.987402 
L 198.935404 251.532786 
L 201.066807 250.21245 
L 203.19821 248.079032 
L 205.329613 245.217585 
L 207.461016 241.742185 
L 209.592419 237.791386 
L 213.855225 229.106286 
L 218.118031 220.533473 
L 220.249434 216.718837 
L 222.380837 213.426404 
L 224.51224 210.787432 
L 226.643643 208.90713 
L 228.775046 207.860458 
L 230.906449 207.689144 
L 233.037852 208.400018 
L 235.169255 209.96474 
L 237.300658 212.320929 
L 239.432061 215.374652 
L 241.563464 219.004165 
L 243.694867 223.064772 
L 252.220479 240.260922 
L 254.351882 243.937958 
L 256.483285 247.052057 
L 258.614688 249.479068 
L 260.746091 251.122235 
L 262.877494 251.91605 
L 265.008897 251.828865 
L 267.1403 250.864157 
L 269.271703 249.060386 
L 271.403106 246.489462 
L 273.534509 243.253879 
L 275.665912 239.48263 
L 279.928718 230.949888 
L 284.191524 222.238368 
L 286.322927 218.250324 
L 288.45433 214.723427 
L 290.585733 211.798284 
L 292.717136 209.591509 
L 294.848539 208.191082 
L 296.979942 207.652832 
L 299.111345 207.998217 
L 301.242748 209.213469 
L 303.374151 211.250138 
L 305.505554 214.02703 
L 307.636957 217.433438 
L 309.76836 221.33356 
L 314.031166 229.979519 
L 318.293972 238.5999 
L 320.425375 242.469004 
L 322.556778 245.833733 
L 324.688181 248.559946 
L 326.819584 250.538957 
L 328.950987 251.691869 
L 331.08239 251.972719 
L 333.213793 251.37031 
L 335.345196 249.90866 
L 337.476599 247.646038 
L 339.608002 244.672649 
L 341.739405 241.107033 
L 343.870808 237.091339 
L 352.39642 219.861808 
L 354.527823 216.124839 
L 356.659226 212.933752 
L 358.790629 210.415768 
L 360.922032 208.67127 
L 363.053435 207.769806 
L 365.184838 207.747314 
L 367.316241 208.604691 
L 369.447644 210.307755 
L 371.579047 212.788612 
L 373.71045 215.948357 
L 375.841853 219.661022 
L 380.104659 228.136917 
L 384.367465 236.87814 
L 386.498868 240.912555 
L 388.630271 244.504644 
L 388.630271 244.504644 
" clip-path="url(#pa51f3a9104)" style="fill: none; stroke: #008b8b; stroke-width: 1.5; stroke-linecap: square"/>
   </g>
   <g id="patch_16">
    <path d="M 54 256.32 
L 54 191.096471 
" style="fill: none; stroke: #000000; stroke-width: 0.8; stroke-linejoin: miter; stroke-linecap: square"/>
   </g>
   <g id="patch_17">
    <path d="M 388.8 256.32 
L 388.8 191.096471 
" style="fill: none; stroke: #000000; stroke-width: 0.8; stroke-linejoin: miter; stroke-linecap: square"/>
   </g>
   <g id="patch_18">
    <path d="M 54 256.32 
L 388.8 256.32 
" style="fill: none; stroke: #000000; stroke-width: 0.8; stroke-linejoin: miter; stroke-linecap: square"/>
   </g>
   <g id="patch_19">
    <path d="M 54 191.096471 
L 388.8 191.096471 
" style="fill: none; stroke: #000000; stroke-width: 0.8; stroke-linejoin: miter; stroke-linecap: square"/>
   </g>
   <g id="text_22">
    <g id="patch_20">
     <path d="M 124.932 232.042287 
L 210.732 232.042287 
L 210.732 212.364162 
L 124.932 212.364162 
z
" style="fill: #00ffff; opacity: 0.75; stroke: #000000; stroke-linejoin: miter"/>
    </g>
    <!-- $P_{mean}$ = 2.3 kW -->
    <g transform="translate(129.932 224.962599) scale(0.1 -0.1)">
     <defs>
      <path id="DejaVuSans-50" d="M 1259 4147 
L 1259 2394 
L 2053 2394 
Q 2494 2394 2734 2622 
Q 2975 2850 2975 3272 
Q 2975 3691 2734 3919 
Q 2494 4147 2053 4147 
L 1259 4147 
z
M 628 4666 
L 2053 4666 
Q 2838 4666 3239 4311 
Q 3641 3956 3641 3272 
Q 3641 2581 3239 2228 
Q 2838 1875 2053 1875 
L 1259 1875 
L 1259 0 
L 628 0 
L 628 4666 
z
" transform="scale(0.015625)"/>
      <path id="DejaVuSans-2e" d="M 684 794 
L 1344 794 
L 1344 0 
L 684 0 
L 684 794 
z
" transform="scale(0.015625)"/>
     </defs>
     <use xlink:href="#DejaVuSans-50" transform="translate(0 0.015625)"/>
     <use xlink:href="#DejaVuSans-6d" transform="translate(61.259766 -16.390625) scale(0.7)"/>
     <use xlink:href="#DejaVuSans-65" transform="translate(129.448242 -16.390625) scale(0.7)"/>
     <use xlink:href="#DejaVuSans-61" transform="translate(172.514648 -16.390625) scale(0.7)"/>
     <use xlink:href="#DejaVuSans-6e" transform="translate(215.410156 -16.390625) scale(0.7)"/>
     <use xlink:href="#DejaVuSans-20" transform="translate(262.509766 0.015625)"/>
     <use xlink:href="#DejaVuSans-3d" transform="translate(294.296875 0.015625)"/>
     <use xlink:href="#DejaVuSans-20" transform="translate(378.085938 0.015625)"/>
     <use xlink:href="#DejaVuSans-32" transform="translate(409.873047 0.015625)"/>
     <use xlink:href="#DejaVuSans-2e" transform="translate(473.496094 0.015625)"/>
     <use xlink:href="#DejaVuSans-33" transform="translate(505.283203 0.015625)"/>
     <use xlink:href="#DejaVuSans-20" transform="translate(568.90625 0.015625)"/>
     <use xlink:href="#DejaVuSans-6b" transform="translate(600.693359 0.015625)"/>
     <use xlink:href="#DejaVuSans-57" transform="translate(658.603516 0.015625)"/>
    </g>
   </g>
   <g id="text_23">
    <g id="patch_21">
     <path d="M 232.068 239.742912 
L 317.868 239.742912 
L 317.868 220.064787 
L 232.068 220.064787 
z
" style="fill: #008b8b; opacity: 0.75; stroke: #000000; stroke-linejoin: miter"/>
    </g>
    <!-- $P_{mean}$ = 0.9 kW -->
    <g transform="translate(237.068 232.663225) scale(0.1 -0.1)">
     <defs>
      <path id="DejaVuSans-39" d="M 703 97 
L 703 672 
Q 941 559 1184 500 
Q 1428 441 1663 441 
Q 2288 441 2617 861 
Q 2947 1281 2994 2138 
Q 2813 1869 2534 1725 
Q 2256 1581 1919 1581 
Q 1219 1581 811 2004 
Q 403 2428 403 3163 
Q 403 3881 828 4315 
Q 1253 4750 1959 4750 
Q 2769 4750 3195 4129 
Q 3622 3509 3622 2328 
Q 3622 1225 3098 567 
Q 2575 -91 1691 -91 
Q 1453 -91 1209 -44 
Q 966 3 703 97 
z
M 1959 2075 
Q 2384 2075 2632 2365 
Q 2881 2656 2881 3163 
Q 2881 3666 2632 3958 
Q 2384 4250 1959 4250 
Q 1534 4250 1286 3958 
Q 1038 3666 1038 3163 
Q 1038 2656 1286 2365 
Q 1534 2075 1959 2075 
z
" transform="scale(0.015625)"/>
     </defs>
     <use xlink:href="#DejaVuSans-50" transform="translate(0 0.015625)"/>
     <use xlink:href="#DejaVuSans-6d" transform="translate(61.259766 -16.390625) scale(0.7)"/>
     <use xlink:href="#DejaVuSans-65" transform="translate(129.448242 -16.390625) scale(0.7)"/>
     <use xlink:href="#DejaVuSans-61" transform="translate(172.514648 -16.390625) scale(0.7)"/>
     <use xlink:href="#DejaVuSans-6e" transform="translate(215.410156 -16.390625) scale(0.7)"/>
     <use xlink:href="#DejaVuSans-20" transform="translate(262.509766 0.015625)"/>
     <use xlink:href="#DejaVuSans-3d" transform="translate(294.296875 0.015625)"/>
     <use xlink:href="#DejaVuSans-20" transform="translate(378.085938 0.015625)"/>
     <use xlink:href="#DejaVuSans-30" transform="translate(409.873047 0.015625)"/>
     <use xlink:href="#DejaVuSans-2e" transform="translate(473.496094 0.015625)"/>
     <use xlink:href="#DejaVuSans-39" transform="translate(505.283203 0.015625)"/>
     <use xlink:href="#DejaVuSans-20" transform="translate(568.90625 0.015625)"/>
     <use xlink:href="#DejaVuSans-6b" transform="translate(600.693359 0.015625)"/>
     <use xlink:href="#DejaVuSans-57" transform="translate(658.603516 0.015625)"/>
    </g>
   </g>
  </g>
  <g id="text_24">
   <!-- $cos_{phi}$ = 0.5 / $U_{drop}$ = 11% / $P_{loss}$ = 1417W -->
   <g transform="translate(90.66 14.76) scale(0.12 -0.12)">
    <defs>
     <path id="DejaVuSans-68" d="M 3513 2113 
L 3513 0 
L 2938 0 
L 2938 2094 
Q 2938 2591 2744 2837 
Q 2550 3084 2163 3084 
Q 1697 3084 1428 2787 
Q 1159 2491 1159 1978 
L 1159 0 
L 581 0 
L 581 4863 
L 1159 4863 
L 1159 2956 
Q 1366 3272 1645 3428 
Q 1925 3584 2291 3584 
Q 2894 3584 3203 3211 
Q 3513 2838 3513 2113 
z
" transform="scale(0.015625)"/>
     <path id="DejaVuSans-2f" d="M 1625 4666 
L 2156 4666 
L 531 -594 
L 0 -594 
L 1625 4666 
z
" transform="scale(0.015625)"/>
     <path id="DejaVuSans-25" d="M 4653 2053 
Q 4381 2053 4226 1822 
Q 4072 1591 4072 1178 
Q 4072 772 4226 539 
Q 4381 306 4653 306 
Q 4919 306 5073 539 
Q 5228 772 5228 1178 
Q 5228 1588 5073 1820 
Q 4919 2053 4653 2053 
z
M 4653 2450 
Q 5147 2450 5437 2106 
Q 5728 1763 5728 1178 
Q 5728 594 5436 251 
Q 5144 -91 4653 -91 
Q 4153 -91 3862 251 
Q 3572 594 3572 1178 
Q 3572 1766 3864 2108 
Q 4156 2450 4653 2450 
z
M 1428 4353 
Q 1159 4353 1004 4120 
Q 850 3888 850 3481 
Q 850 3069 1003 2837 
Q 1156 2606 1428 2606 
Q 1700 2606 1854 2837 
Q 2009 3069 2009 3481 
Q 2009 3884 1853 4118 
Q 1697 4353 1428 4353 
z
M 4250 4750 
L 4750 4750 
L 1831 -91 
L 1331 -91 
L 4250 4750 
z
M 1428 4750 
Q 1922 4750 2215 4408 
Q 2509 4066 2509 3481 
Q 2509 2891 2217 2550 
Q 1925 2209 1428 2209 
Q 931 2209 642 2551 
Q 353 2894 353 3481 
Q 353 4063 643 4406 
Q 934 4750 1428 4750 
z
" transform="scale(0.015625)"/>
     <path id="DejaVuSans-37" d="M 525 4666 
L 3525 4666 
L 3525 4397 
L 1831 0 
L 1172 0 
L 2766 4134 
L 525 4134 
L 525 4666 
z
" transform="scale(0.015625)"/>
    </defs>
    <use xlink:href="#DejaVuSans-63" transform="translate(0 0.78125)"/>
    <use xlink:href="#DejaVuSans-6f" transform="translate(54.980469 0.78125)"/>
    <use xlink:href="#DejaVuSans-73" transform="translate(116.162109 0.78125)"/>
    <use xlink:href="#DejaVuSans-70" transform="translate(169.21875 -15.625) scale(0.7)"/>
    <use xlink:href="#DejaVuSans-68" transform="translate(213.652344 -15.625) scale(0.7)"/>
    <use xlink:href="#DejaVuSans-69" transform="translate(258.017578 -15.625) scale(0.7)"/>
    <use xlink:href="#DejaVuSans-20" transform="translate(280.200195 0.78125)"/>
    <use xlink:href="#DejaVuSans-3d" transform="translate(311.987305 0.78125)"/>
    <use xlink:href="#DejaVuSans-20" transform="translate(395.776367 0.78125)"/>
    <use xlink:href="#DejaVuSans-30" transform="translate(427.563477 0.78125)"/>
    <use xlink:href="#DejaVuSans-2e" transform="translate(491.186523 0.78125)"/>
    <use xlink:href="#DejaVuSans-35" transform="translate(522.973633 0.78125)"/>
    <use xlink:href="#DejaVuSans-20" transform="translate(586.59668 0.78125)"/>
    <use xlink:href="#DejaVuSans-2f" transform="translate(618.383789 0.78125)"/>
    <use xlink:href="#DejaVuSans-20" transform="translate(652.075195 0.78125)"/>
    <use xlink:href="#DejaVuSans-55" transform="translate(683.862305 0.78125)"/>
    <use xlink:href="#DejaVuSans-64" transform="translate(758.012695 -15.625) scale(0.7)"/>
    <use xlink:href="#DejaVuSans-72" transform="translate(802.446289 -15.625) scale(0.7)"/>
    <use xlink:href="#DejaVuSans-6f" transform="translate(831.225586 -15.625) scale(0.7)"/>
    <use xlink:href="#DejaVuSans-70" transform="translate(874.052734 -15.625) scale(0.7)"/>
    <use xlink:href="#DejaVuSans-20" transform="translate(921.220703 0.78125)"/>
    <use xlink:href="#DejaVuSans-3d" transform="translate(953.007812 0.78125)"/>
    <use xlink:href="#DejaVuSans-20" transform="translate(1036.796875 0.78125)"/>
    <use xlink:href="#DejaVuSans-31" transform="translate(1068.583984 0.78125)"/>
    <use xlink:href="#DejaVuSans-31" transform="translate(1132.207031 0.78125)"/>
    <use xlink:href="#DejaVuSans-25" transform="translate(1195.830078 0.78125)"/>
    <use xlink:href="#DejaVuSans-20" transform="translate(1290.849609 0.78125)"/>
    <use xlink:href="#DejaVuSans-2f" transform="translate(1322.636719 0.78125)"/>
    <use xlink:href="#DejaVuSans-20" transform="translate(1356.328125 0.78125)"/>
    <use xlink:href="#DejaVuSans-50" transform="translate(1388.115234 0.78125)"/>
    <use xlink:href="#DejaVuSans-6c" transform="translate(1449.375 -15.625) scale(0.7)"/>
    <use xlink:href="#DejaVuSans-6f" transform="translate(1468.823242 -15.625) scale(0.7)"/>
    <use xlink:href="#DejaVuSans-73" transform="translate(1511.650391 -15.625) scale(0.7)"/>
    <use xlink:href="#DejaVuSans-73" transform="translate(1548.120117 -15.625) scale(0.7)"/>
    <use xlink:href="#DejaVuSans-20" transform="translate(1587.324219 0.78125)"/>
    <use xlink:href="#DejaVuSans-3d" transform="translate(1619.111328 0.78125)"/>
    <use xlink:href="#DejaVuSans-20" transform="translate(1702.900391 0.78125)"/>
    <use xlink:href="#DejaVuSans-31" transform="translate(1734.6875 0.78125)"/>
    <use xlink:href="#DejaVuSans-34" transform="translate(1798.310547 0.78125)"/>
    <use xlink:href="#DejaVuSans-31" transform="translate(1861.933594 0.78125)"/>
    <use xlink:href="#DejaVuSans-37" transform="translate(1925.556641 0.78125)"/>
    <use xlink:href="#DejaVuSans-57" transform="translate(1989.179688 0.78125)"/>
   </g>
  </g>
 </g>
 <defs>
  <clipPath id="p3b3a9af262">
   <rect x="54" y="34.56" width="334.8" height="65.223529"/>
  </clipPath>
  <clipPath id="p45158e5fca">
   <rect x="54" y="112.828235" width="334.8" height="65.223529"/>
  </clipPath>
  <clipPath id="pa51f3a9104">
   <rect x="54" y="191.096471" width="334.8" height="65.223529"/>
  </clipPath>
 </defs>
</svg>
